<svg xmlns="http://www.w3.org/2000/svg" xmlns:xlink="http://www.w3.org/1999/xlink" width="145" height="162" viewBox="0 0 145 162">
  <defs>
    <clipPath id="clip-path">
      <path id="Rectangle_766" data-name="Rectangle 766" d="M0,0H142a3,3,0,0,1,3,3V162a0,0,0,0,1,0,0H0a0,0,0,0,1,0,0V0A0,0,0,0,1,0,0Z" transform="translate(1705 670)" fill="#fff" stroke="#707070" stroke-width="1"/>
    </clipPath>
    <linearGradient id="linear-gradient" x1="0.001" y1="0.499" x2="0.999" y2="0.499" gradientUnits="objectBoundingBox">
      <stop offset="0" stop-color="#fff54f"/>
      <stop offset="1" stop-color="#ebb328"/>
    </linearGradient>
  </defs>
  <g id="Mask_Group_41" data-name="Mask Group 41" transform="translate(-1705 -670)" clip-path="url(#clip-path)">
    <g id="Objects" transform="translate(1624.756 379.89)">
      <g id="Group_8939" data-name="Group 8939" transform="translate(82.24 265)">
        <g id="Group_8938" data-name="Group 8938" transform="translate(0)">
          <g id="Group_8937" data-name="Group 8937" transform="translate(0)">
            <g id="Group_8936" data-name="Group 8936">
              <g id="Group_8880" data-name="Group 8880">
                <g id="Group_8835" data-name="Group 8835" transform="translate(92.587)">
                  <rect id="Rectangle_676" data-name="Rectangle 676" width="1.961" height="11.641" fill="#585858" opacity="0.5"/>
                  <rect id="Rectangle_677" data-name="Rectangle 677" width="1.961" height="11.641" transform="translate(0 175.47)" fill="#585858" opacity="0.5"/>
                </g>
                <g id="Group_8836" data-name="Group 8836" transform="translate(86.066 0.206)">
                  <rect id="Rectangle_678" data-name="Rectangle 678" width="1.961" height="11.641" transform="translate(0 0.137) rotate(-4.002)" fill="#585858" opacity="0.5"/>
                  <rect id="Rectangle_679" data-name="Rectangle 679" width="1.961" height="11.641" transform="translate(12.255 175.244) rotate(-4.002)" fill="#585858" opacity="0.5"/>
                </g>
                <g id="Group_8837" data-name="Group 8837" transform="translate(79.538 0.802)">
                  <rect id="Rectangle_680" data-name="Rectangle 680" width="1.961" height="11.641" transform="matrix(0.99, -0.139, 0.139, 0.99, 0, 0.273)" fill="#585858" opacity="0.5"/>
                  <rect id="Rectangle_681" data-name="Rectangle 681" width="1.961" height="11.641" transform="matrix(0.99, -0.139, 0.139, 0.99, 24.53, 174.134)" fill="#585858" opacity="0.5"/>
                </g>
                <g id="Group_8838" data-name="Group 8838" transform="translate(73.15 1.777)">
                  <rect id="Rectangle_682" data-name="Rectangle 682" width="1.961" height="11.641" transform="translate(0 0.408) rotate(-11.999)" fill="#585858" opacity="0.5"/>
                  <rect id="Rectangle_683" data-name="Rectangle 683" width="1.961" height="11.641" transform="translate(36.511 172.208) rotate(-11.993)" fill="#585858" opacity="0.5"/>
                </g>
                <g id="Group_8839" data-name="Group 8839" transform="translate(66.886 3.363)">
                  <rect id="Rectangle_684" data-name="Rectangle 684" width="1.961" height="11.641" transform="matrix(0.961, -0.276, 0.276, 0.961, 0, 0.541)" fill="#585858" opacity="0.5"/>
                  <rect id="Rectangle_685" data-name="Rectangle 685" width="1.961" height="11.641" transform="matrix(0.961, -0.276, 0.276, 0.961, 48.4, 169.255)" fill="#585858" opacity="0.5"/>
                </g>
                <g id="Group_8840" data-name="Group 8840" transform="translate(60.631 5.316)">
                  <rect id="Rectangle_686" data-name="Rectangle 686" width="1.961" height="11.641" transform="translate(0 0.671) rotate(-20.004)" fill="#585858" opacity="0.5"/>
                  <rect id="Rectangle_687" data-name="Rectangle 687" width="1.961" height="11.641" transform="translate(60.016 165.6) rotate(-19.999)" fill="#585858" opacity="0.5"/>
                </g>
                <g id="Group_8841" data-name="Group 8841" transform="translate(54.633 7.688)">
                  <rect id="Rectangle_688" data-name="Rectangle 688" width="1.961" height="11.641" transform="translate(0 0.797) rotate(-23.999)" fill="#585858" opacity="0.5"/>
                  <rect id="Rectangle_689" data-name="Rectangle 689" width="1.961" height="11.641" transform="translate(71.352 161.224) rotate(-24.004)" fill="#585858" opacity="0.5"/>
                </g>
                <g id="Group_8842" data-name="Group 8842" transform="translate(48.804 10.527)">
                  <rect id="Rectangle_690" data-name="Rectangle 690" width="1.961" height="11.641" transform="translate(0 0.92) rotate(-27.995)" fill="#585858" opacity="0.5"/>
                  <rect id="Rectangle_691" data-name="Rectangle 691" width="1.961" height="11.641" transform="matrix(0.883, -0.47, 0.47, 0.883, 82.357, 155.922)" fill="#585858" opacity="0.5"/>
                </g>
                <g id="Group_8843" data-name="Group 8843" transform="translate(43.104 13.747)">
                  <rect id="Rectangle_692" data-name="Rectangle 692" width="1.961" height="11.641" transform="translate(0 1.039) rotate(-32.001)" fill="#585858" opacity="0.5"/>
                  <rect id="Rectangle_693" data-name="Rectangle 693" width="1.961" height="11.641" transform="matrix(0.848, -0.53, 0.53, 0.848, 93.14, 149.893)" fill="#585858" opacity="0.5"/>
                </g>
                <g id="Group_8844" data-name="Group 8844" transform="translate(37.787 17.337)">
                  <rect id="Rectangle_694" data-name="Rectangle 694" width="1.961" height="11.641" transform="matrix(0.809, -0.588, 0.588, 0.809, 0, 1.152)" fill="#585858" opacity="0.5"/>
                  <rect id="Rectangle_695" data-name="Rectangle 695" width="1.961" height="11.641" transform="matrix(0.809, -0.588, 0.588, 0.809, 103.184, 143.156)" fill="#585858" opacity="0.5"/>
                </g>
                <g id="Group_8845" data-name="Group 8845" transform="translate(32.658 21.188)">
                  <rect id="Rectangle_696" data-name="Rectangle 696" width="1.961" height="11.641" transform="translate(0 1.26) rotate(-40.002)" fill="#585858" opacity="0.5"/>
                  <rect id="Rectangle_697" data-name="Rectangle 697" width="1.961" height="11.641" transform="translate(112.886 135.781) rotate(-40.002)" fill="#585858" opacity="0.5"/>
                </g>
                <g id="Group_8846" data-name="Group 8846" transform="translate(27.835 25.614)">
                  <rect id="Rectangle_698" data-name="Rectangle 698" width="1.961" height="11.641" transform="matrix(0.719, -0.695, 0.695, 0.719, 0, 1.362)" fill="#585858" opacity="0.5"/>
                  <rect id="Rectangle_699" data-name="Rectangle 699" width="1.961" height="11.641" transform="matrix(0.719, -0.695, 0.695, 0.719, 121.968, 127.516)" fill="#585858" opacity="0.5"/>
                </g>
                <g id="Group_8847" data-name="Group 8847" transform="translate(23.403 30.241)">
                  <rect id="Rectangle_700" data-name="Rectangle 700" width="1.961" height="11.641" transform="matrix(0.669, -0.743, 0.743, 0.669, 0, 1.457)" fill="#585858" opacity="0.5"/>
                  <rect id="Rectangle_701" data-name="Rectangle 701" width="1.961" height="11.641" transform="matrix(0.669, -0.743, 0.743, 0.669, 130.317, 118.918)" fill="#585858" opacity="0.5"/>
                </g>
                <g id="Group_8848" data-name="Group 8848" transform="translate(19.245 35.146)">
                  <rect id="Rectangle_702" data-name="Rectangle 702" width="1.961" height="11.641" transform="translate(0 1.545) rotate(-51.998)" fill="#585858" opacity="0.5"/>
                  <rect id="Rectangle_703" data-name="Rectangle 703" width="1.961" height="11.641" transform="matrix(0.616, -0.788, 0.788, 0.616, 138.295, 109.617)" fill="#585858" opacity="0.5"/>
                </g>
                <g id="Group_8849" data-name="Group 8849" transform="translate(15.484 40.503)">
                  <rect id="Rectangle_704" data-name="Rectangle 704" width="1.961" height="11.641" transform="translate(0 1.625) rotate(-56.002)" fill="#585858" opacity="0.5"/>
                  <rect id="Rectangle_705" data-name="Rectangle 705" width="1.961" height="11.641" transform="translate(145.508 99.756) rotate(-55.998)" fill="#585858" opacity="0.5"/>
                </g>
                <g id="Group_8850" data-name="Group 8850" transform="translate(12.043 45.922)">
                  <rect id="Rectangle_706" data-name="Rectangle 706" width="1.961" height="11.641" transform="matrix(0.5, -0.866, 0.866, 0.5, 0, 1.698)" fill="#585858" opacity="0.5"/>
                  <rect id="Rectangle_707" data-name="Rectangle 707" width="1.961" height="11.641" transform="matrix(0.5, -0.866, 0.866, 0.5, 151.949, 89.529)" fill="#585858" opacity="0.5"/>
                </g>
                <g id="Group_8851" data-name="Group 8851" transform="translate(9.023 51.718)">
                  <rect id="Rectangle_708" data-name="Rectangle 708" width="1.961" height="11.641" transform="matrix(0.438, -0.899, 0.899, 0.438, 0, 1.762)" fill="#585858" opacity="0.5"/>
                  <rect id="Rectangle_709" data-name="Rectangle 709" width="1.961" height="11.641" transform="translate(157.764 78.7) rotate(-64.004)" fill="#585858" opacity="0.5"/>
                </g>
                <g id="Group_8852" data-name="Group 8852" transform="translate(6.452 57.609)">
                  <rect id="Rectangle_710" data-name="Rectangle 710" width="1.961" height="11.641" transform="translate(0 1.818) rotate(-68.006)" fill="#585858" opacity="0.5"/>
                  <rect id="Rectangle_711" data-name="Rectangle 711" width="1.961" height="11.641" transform="translate(162.709 67.602) rotate(-67.995)" fill="#585858" opacity="0.5"/>
                </g>
                <g id="Group_8853" data-name="Group 8853" transform="translate(4.284 63.755)">
                  <rect id="Rectangle_712" data-name="Rectangle 712" width="1.961" height="11.641" transform="translate(0 1.864) rotate(-71.994)" fill="#585858" opacity="0.5"/>
                  <rect id="Rectangle_713" data-name="Rectangle 713" width="1.961" height="11.641" transform="translate(166.981 56.142) rotate(-72.007)" fill="#585858" opacity="0.5"/>
                </g>
                <g id="Group_8854" data-name="Group 8854" transform="translate(2.547 70.014)">
                  <rect id="Rectangle_714" data-name="Rectangle 714" width="1.961" height="11.641" transform="translate(0 1.902) rotate(-76.001)" fill="#585858" opacity="0.5"/>
                  <rect id="Rectangle_715" data-name="Rectangle 715" width="1.961" height="11.641" transform="translate(170.264 44.371) rotate(-76.001)" fill="#585858" opacity="0.5"/>
                </g>
                <g id="Group_8855" data-name="Group 8855" transform="translate(1.27 76.335)">
                  <rect id="Rectangle_716" data-name="Rectangle 716" width="1.961" height="11.641" transform="translate(0 1.931) rotate(-80.003)" fill="#585858" opacity="0.5"/>
                  <rect id="Rectangle_717" data-name="Rectangle 717" width="1.961" height="11.641" transform="translate(172.913 32.419) rotate(-80.003)" fill="#585858" opacity="0.5"/>
                </g>
                <g id="Group_8856" data-name="Group 8856" transform="translate(0.361 82.802)">
                  <rect id="Rectangle_718" data-name="Rectangle 718" width="1.961" height="11.641" transform="translate(0 1.95) rotate(-84.001)" fill="#585858" opacity="0.5"/>
                  <rect id="Rectangle_719" data-name="Rectangle 719" width="1.961" height="11.641" transform="translate(174.623 20.288) rotate(-84.001)" fill="#585858" opacity="0.5"/>
                </g>
                <g id="Group_8857" data-name="Group 8857" transform="translate(0 89.379)">
                  <rect id="Rectangle_720" data-name="Rectangle 720" width="1.961" height="11.641" transform="translate(0 1.959) rotate(-87.997)" fill="#585858" opacity="0.5"/>
                  <rect id="Rectangle_721" data-name="Rectangle 721" width="1.961" height="11.641" transform="translate(175.448 8.064) rotate(-88)" fill="#585858" opacity="0.5"/>
                </g>
                <g id="Group_8858" data-name="Group 8858" transform="translate(0.044 89.372)">
                  <rect id="Rectangle_722" data-name="Rectangle 722" width="11.641" height="1.961" transform="translate(0 6.536) rotate(-2.003)" fill="#585858" opacity="0.5"/>
                  <rect id="Rectangle_723" data-name="Rectangle 723" width="11.641" height="1.961" transform="translate(175.472 0.406) rotate(-2)" fill="#585858" opacity="0.5"/>
                </g>
                <g id="Group_8859" data-name="Group 8859" transform="translate(0.357 82.838)">
                  <rect id="Rectangle_724" data-name="Rectangle 724" width="11.641" height="1.961" transform="translate(0 19.475) rotate(-5.999)" fill="#585858" opacity="0.5"/>
                  <rect id="Rectangle_725" data-name="Rectangle 725" width="11.641" height="1.961" transform="translate(174.617 1.216) rotate(-5.999)" fill="#585858" opacity="0.5"/>
                </g>
                <g id="Group_8860" data-name="Group 8860" transform="translate(1.197 76.328)">
                  <rect id="Rectangle_726" data-name="Rectangle 726" width="11.641" height="1.961" transform="translate(0 32.535) rotate(-9.997)" fill="#585858" opacity="0.5"/>
                  <rect id="Rectangle_727" data-name="Rectangle 727" width="11.641" height="1.961" transform="translate(172.9 2.021) rotate(-9.997)" fill="#585858" opacity="0.5"/>
                </g>
                <g id="Group_8861" data-name="Group 8861" transform="translate(2.579 69.934)">
                  <rect id="Rectangle_728" data-name="Rectangle 728" width="11.641" height="1.961" transform="translate(0 45.329) rotate(-13.999)" fill="#585858" opacity="0.5"/>
                  <rect id="Rectangle_729" data-name="Rectangle 729" width="11.641" height="1.961" transform="translate(170.312 2.816) rotate(-13.999)" fill="#585858" opacity="0.5"/>
                </g>
                <g id="Group_8862" data-name="Group 8862" transform="translate(4.238 63.687)">
                  <rect id="Rectangle_730" data-name="Rectangle 730" width="11.641" height="1.961" transform="translate(0 57.87) rotate(-18.006)" fill="#585858" opacity="0.5"/>
                  <rect id="Rectangle_731" data-name="Rectangle 731" width="11.641" height="1.961" transform="translate(167.006 3.597) rotate(-17.998)" fill="#585858" opacity="0.5"/>
                </g>
                <g id="Group_8863" data-name="Group 8863" transform="translate(6.471 57.572)">
                  <rect id="Rectangle_732" data-name="Rectangle 732" width="11.641" height="1.961" transform="translate(0 70.139) rotate(-21.994)" fill="#585858" opacity="0.5"/>
                  <rect id="Rectangle_733" data-name="Rectangle 733" width="11.641" height="1.961" transform="translate(162.763 4.362) rotate(-22.005)" fill="#585858" opacity="0.5"/>
                </g>
                <g id="Group_8864" data-name="Group 8864" transform="translate(9.093 51.659)">
                  <rect id="Rectangle_734" data-name="Rectangle 734" width="11.641" height="1.961" transform="matrix(0.899, -0.438, 0.438, 0.899, 0, 82.114)" fill="#585858" opacity="0.5"/>
                  <rect id="Rectangle_735" data-name="Rectangle 735" width="11.641" height="1.961" transform="translate(157.798 5.102) rotate(-25.996)" fill="#585858" opacity="0.5"/>
                </g>
                <g id="Group_8865" data-name="Group 8865" transform="translate(12.043 45.884)">
                  <rect id="Rectangle_736" data-name="Rectangle 736" width="11.641" height="1.961" transform="translate(0 93.699) rotate(-29.998)" fill="#585858" opacity="0.5"/>
                  <rect id="Rectangle_737" data-name="Rectangle 737" width="11.641" height="1.961" transform="matrix(0.866, -0.5, 0.5, 0.866, 151.983, 5.82)" fill="#585858" opacity="0.5"/>
                </g>
                <g id="Group_8866" data-name="Group 8866" transform="translate(15.468 40.397)">
                  <rect id="Rectangle_738" data-name="Rectangle 738" width="11.641" height="1.961" transform="translate(0 104.69) rotate(-33.998)" fill="#585858" opacity="0.5"/>
                  <rect id="Rectangle_739" data-name="Rectangle 739" width="11.641" height="1.961" transform="translate(145.539 6.51) rotate(-34.002)" fill="#585858" opacity="0.5"/>
                </g>
                <g id="Group_8867" data-name="Group 8867" transform="translate(19.233 35.228)">
                  <rect id="Rectangle_740" data-name="Rectangle 740" width="11.641" height="1.961" transform="translate(0 115.263) rotate(-38.002)" fill="#585858" opacity="0.5"/>
                  <rect id="Rectangle_741" data-name="Rectangle 741" width="11.641" height="1.961" transform="matrix(0.788, -0.616, 0.616, 0.788, 138.316, 7.167)" fill="#585858" opacity="0.5"/>
                </g>
                <g id="Group_8868" data-name="Group 8868" transform="translate(23.36 30.191)">
                  <rect id="Rectangle_742" data-name="Rectangle 742" width="11.641" height="1.961" transform="matrix(0.743, -0.669, 0.669, 0.743, 0, 125.311)" fill="#585858" opacity="0.5"/>
                  <rect id="Rectangle_743" data-name="Rectangle 743" width="11.641" height="1.961" transform="matrix(0.743, -0.669, 0.669, 0.743, 130.424, 7.789)" fill="#585858" opacity="0.5"/>
                </g>
                <g id="Group_8869" data-name="Group 8869" transform="translate(27.846 25.557)">
                  <rect id="Rectangle_744" data-name="Rectangle 744" width="11.641" height="1.961" transform="matrix(0.695, -0.719, 0.719, 0.695, 0, 134.714)" fill="#585858" opacity="0.5"/>
                  <rect id="Rectangle_745" data-name="Rectangle 745" width="11.641" height="1.961" transform="matrix(0.695, -0.719, 0.719, 0.695, 121.914, 8.374)" fill="#585858" opacity="0.5"/>
                </g>
                <g id="Group_8870" data-name="Group 8870" transform="translate(32.603 21.278)">
                  <rect id="Rectangle_746" data-name="Rectangle 746" width="11.641" height="1.961" transform="translate(0 143.363) rotate(-49.998)" fill="#585858" opacity="0.5"/>
                  <rect id="Rectangle_747" data-name="Rectangle 747" width="11.641" height="1.961" transform="translate(112.9 8.917) rotate(-49.998)" fill="#585858" opacity="0.5"/>
                </g>
                <g id="Group_8871" data-name="Group 8871" transform="translate(37.787 17.268)">
                  <rect id="Rectangle_748" data-name="Rectangle 748" width="11.641" height="1.961" transform="matrix(0.588, -0.809, 0.809, 0.588, 0, 151.401)" fill="#585858" opacity="0.5"/>
                  <rect id="Rectangle_749" data-name="Rectangle 749" width="11.641" height="1.961" transform="matrix(0.588, -0.809, 0.809, 0.588, 103.183, 9.417)" fill="#585858" opacity="0.5"/>
                </g>
                <g id="Group_8872" data-name="Group 8872" transform="translate(43.109 13.708)">
                  <rect id="Rectangle_750" data-name="Rectangle 750" width="11.641" height="1.961" transform="translate(0 158.729) rotate(-57.999)" fill="#585858" opacity="0.5"/>
                  <rect id="Rectangle_751" data-name="Rectangle 751" width="11.641" height="1.961" transform="matrix(0.53, -0.848, 0.848, 0.53, 93.055, 9.873)" fill="#585858" opacity="0.5"/>
                </g>
                <g id="Group_8873" data-name="Group 8873" transform="translate(48.754 10.488)">
                  <rect id="Rectangle_752" data-name="Rectangle 752" width="11.641" height="1.961" transform="translate(0 165.287) rotate(-62.005)" fill="#585858" opacity="0.5"/>
                  <rect id="Rectangle_753" data-name="Rectangle 753" width="11.641" height="1.961" transform="matrix(0.47, -0.883, 0.883, 0.47, 82.417, 10.278)" fill="#585858" opacity="0.5"/>
                </g>
                <g id="Group_8874" data-name="Group 8874" transform="translate(54.571 7.686)">
                  <rect id="Rectangle_754" data-name="Rectangle 754" width="11.641" height="1.961" transform="translate(0 171.026) rotate(-66.001)" fill="#585858" opacity="0.5"/>
                  <rect id="Rectangle_755" data-name="Rectangle 755" width="11.641" height="1.961" transform="translate(71.421 10.634) rotate(-65.996)" fill="#585858" opacity="0.5"/>
                </g>
                <g id="Group_8875" data-name="Group 8875" transform="translate(60.709 5.229)">
                  <rect id="Rectangle_756" data-name="Rectangle 756" width="11.641" height="1.961" transform="translate(0 175.93) rotate(-69.996)" fill="#585858" opacity="0.5"/>
                  <rect id="Rectangle_757" data-name="Rectangle 757" width="11.641" height="1.961" transform="translate(59.939 10.939) rotate(-70.001)" fill="#585858" opacity="0.5"/>
                </g>
                <g id="Group_8876" data-name="Group 8876" transform="translate(66.787 3.38)">
                  <rect id="Rectangle_758" data-name="Rectangle 758" width="11.641" height="1.961" transform="matrix(0.276, -0.961, 0.961, 0.276, 0, 179.939)" fill="#585858" opacity="0.5"/>
                  <rect id="Rectangle_759" data-name="Rectangle 759" width="11.641" height="1.961" transform="matrix(0.276, -0.961, 0.961, 0.276, 48.425, 11.189)" fill="#585858" opacity="0.5"/>
                </g>
                <g id="Group_8877" data-name="Group 8877" transform="translate(73.15 1.781)">
                  <rect id="Rectangle_760" data-name="Rectangle 760" width="11.641" height="1.961" transform="translate(0 183.117) rotate(-78.007)" fill="#585858" opacity="0.5"/>
                  <rect id="Rectangle_761" data-name="Rectangle 761" width="11.641" height="1.961" transform="translate(36.543 11.387) rotate(-78.007)" fill="#585858" opacity="0.5"/>
                </g>
                <g id="Group_8878" data-name="Group 8878" transform="translate(79.612 0.792)">
                  <rect id="Rectangle_762" data-name="Rectangle 762" width="11.641" height="1.961" transform="matrix(0.139, -0.99, 0.99, 0.139, 0, 185.367)" fill="#585858" opacity="0.5"/>
                  <rect id="Rectangle_763" data-name="Rectangle 763" width="11.641" height="1.961" transform="matrix(0.139, -0.99, 0.99, 0.139, 24.379, 11.528)" fill="#585858" opacity="0.5"/>
                </g>
                <g id="Group_8879" data-name="Group 8879" transform="translate(86.072 0.106)">
                  <rect id="Rectangle_764" data-name="Rectangle 764" width="11.641" height="1.961" transform="translate(0 186.745) rotate(-86.002)" fill="#585858" opacity="0.5"/>
                  <rect id="Rectangle_765" data-name="Rectangle 765" width="11.641" height="1.961" transform="translate(12.267 11.613) rotate(-85.998)" fill="#585858" opacity="0.5"/>
                </g>
              </g>
              <g id="Group_8940" data-name="Group 8940" transform="translate(63.665 45.893)">
                <path id="Path_19513" data-name="Path 19513" d="M167.618,334.317c-1.79-.942-3.674-1.884-5.463-2.732-.848-.471-1.79-.848-2.543-1.225-.848-.377-1.6-.848-2.355-1.224-.754-.471-1.413-.848-2.072-1.319-2.166-1.6-3.579-3.391-3.579-5.652v-1.13a1.2,1.2,0,0,1,.094-.565.346.346,0,0,1,.094-.283c0-.094.094-.283.094-.377s.094-.188.094-.377c0-.094.094-.188.094-.377,0-.094.094-.188.094-.377,0-.094.094-.188.094-.283.094-.094.094-.188.188-.283a.2.2,0,0,1,.188-.188c.094-.094.188-.188.188-.283l.188-.188.283-.283.094-.094a1.3,1.3,0,0,1,.377-.283.092.092,0,0,0,.094-.094,9.236,9.236,0,0,1,4.615-1.507c.471,0,.848-.094,1.319-.094,4.71,0,8.195,1.884,12.151,5.557l8.289-9.419h0c-.848-.848-1.7-1.7-2.543-2.449a26.255,26.255,0,0,0-9.137-5.463,27.632,27.632,0,0,0-4.992-1.225V290.8H150.286v11.492c-10.455,2.166-16.955,9.7-16.955,20.628,0,20.063,29.482,19.875,29.482,31.366,0,4.71-2.355,7.253-7.63,7.63h.094c-4.992-.283-9.7-2.449-15.071-6.405h-2.449L130.6,366.531c5.275,4.8,13.093,7.724,19.686,8.477v11.209h13.281V374.632a22.6,22.6,0,0,0,10.55-5.086,19.329,19.329,0,0,0,5.746-8.854,21,21,0,0,0,.848-3.674,25.691,25.691,0,0,0,.283-3.862C180.993,343.171,174.494,337.991,167.618,334.317Z" transform="translate(-130.6 -290.8)" fill="url(#linear-gradient)"/>
                <g id="Group_8883" data-name="Group 8883" transform="translate(0 0)">
                  <path id="Path_19518" data-name="Path 19518" d="M165.332,354.286c0-11.492-29.482-11.3-29.482-31.366,0-10.926,6.5-18.556,16.955-20.628V290.8h-2.449v11.492c-10.455,2.166-16.955,9.7-16.955,20.628,0,20.063,29.482,19.875,29.482,31.366,0,4.71-2.355,7.253-7.63,7.63.377,0,.659.094,1.036.094C162.6,361.916,165.332,359.373,165.332,354.286Z" transform="translate(-130.763 -290.8)" fill="#a37f20"/>
                  <path id="Path_19519" data-name="Path 19519" d="M133.049,370.521l7.159-11.021h-2.449L130.6,370.521c5.275,4.8,13.093,7.724,19.686,8.477v11.209h2.449V379C146.142,378.244,138.324,375.325,133.049,370.521Z" transform="translate(-130.6 -294.789)" fill="#a37f20"/>
                </g>
              </g>
            </g>
          </g>
        </g>
      </g>
    </g>
  </g>
</svg>
