<svg xmlns="http://www.w3.org/2000/svg" width="181.241" height="215.115" viewBox="0 0 181.241 215.115">
  <g id="Illus" transform="translate(-111.458 -50.328)">
    <path id="Path_84328" data-name="Path 84328" d="M422.644,453.29c-1.58-.175-3.17-.34-4.754-.473-.581-.051-1.163-.041-1.744-.1-2.058-.18-4.086-.37-6.133-.515-.911-.057-1.821-.067-2.727-.062a23.758,23.758,0,0,1-3.473-.154c-.36-.057-.314-.4,0-.746a2.336,2.336,0,0,1,1.544-.751c.592,0,1.189-.051,1.785-.067s1.189,0,1.78.041c1.189.051,2.382.139,3.576.278,1.425.17,2.918.123,4.379.2,1.611.082,3.221.2,4.826.314l2.974.232c.751.062,1.5.134,2.259.216l1.132.129.581.077c.211.036.355.051.654.123a2.136,2.136,0,0,1,1.029.664,4.307,4.307,0,0,1,.592.864,7.92,7.92,0,0,1,.695,1.78,7.148,7.148,0,0,1,.185.8,2.094,2.094,0,0,1-.057,1.081.931.931,0,0,1-.581.479,2.134,2.134,0,0,1-.376.123.669.669,0,0,1-.561-.206,1.58,1.58,0,0,1-.412-.7c-.129-.463-.293-.916-.427-1.353a7.892,7.892,0,0,0-.473-1.178,1.734,1.734,0,0,0-.237-.355h-.031l-.149-.031-.34-.057-.751-.1c-1.544-.185-3.144-.355-4.734-.515Z" transform="translate(-141.8 -194.224)" fill="#231f20"/>
    <path id="Path_84329" data-name="Path 84329" d="M157.94,121.352c-7.595-.247-15.436-21.071-1.348-25.511.659-.34,1.276.324,1.858-.067,10.77-7.2,9.046-23.474,26.407-34.953C206.508,46.5,228.593,64.937,221.729,77c2.948,2.022,6.144,12.231-.72,16.666-5.094,3.3-17.376,4.935-23.042,5.578-17.742,2.012-28.506,16.023-28.5,18.719C169.481,117.961,161.382,114.57,157.94,121.352Z" transform="translate(-18.124 -2.562)" fill="#231f20"/>
    <ellipse id="Ellipse_508" data-name="Ellipse 508" cx="0.972" cy="1.657" rx="0.972" ry="1.657" transform="translate(196.478 195.967)" fill="#231f20"/>
    <path id="Path_84330" data-name="Path 84330" d="M391.072,90.022q-3.7.113-7.4.18l-2.7.057q-4.765,0-9.519-.165l-4.219-.144c-1.8-.062-3.6-.118-5.377-.35-1.111-.144.365-.885,2.418-.8,3.643.18,7.281.262,10.96.412,2.2.082,4.492,0,6.746-.046q3.715-.062,7.43-.211c1.544-.051,3.046-.134,4.569-.216,2.305-.134,4.631-.262,6.91-.468,1.775-.165,3.509-.391,5.259-.617.386-.046.762-.1,1.153-.139,1.446-.144,1.914-.051,2.254.211a1.455,1.455,0,0,1,.226.185c.16.211-.412.468-1.461.679-.777.139-1.569.268-2.372.386s-1.616.2-2.434.278c-1.636.154-3.3.3-4.971.406-2.48.17-4.976.278-7.461.386Z" transform="translate(-121.368 -18.02)" fill="#231f20"/>
    <path id="Path_84331" data-name="Path 84331" d="M378.36,152.152c2.372,0,4.76-.041,7.142-.123l2.6-.149q4.6-.175,9.21-.4c1.364-.072,2.732-.19,4.08-.3a38.7,38.7,0,0,1,5.238-.257c.545.031.484.381.036.746a4.193,4.193,0,0,1-2.254.828c-3.52.278-7.06.566-10.646.653-2.146.041-4.363.283-6.555.4-2.413.123-4.826.216-7.245.262q-2.228.041-4.466.031c-2.254,0-4.523-.1-6.766-.242a40.191,40.191,0,0,1-5.228-.515c-.386-.1-.772-.139-1.158-.273-1.441-.448-1.847-.921-1.832-1.492a1.762,1.762,0,0,1,0-.376c.051-.18.247-.257.515-.262a1.822,1.822,0,0,1,.463.072,3.63,3.63,0,0,1,.607.154,25.953,25.953,0,0,0,4.358.767c1.544.17,3.113.268,4.708.34,2.362.1,4.76.149,7.157.118Z" transform="translate(-120.902 -48.716)" fill="#231f20"/>
    <path id="Path_84332" data-name="Path 84332" d="M233.073,294.738c-.674-.726-1.317-1.482-1.95-2.243l-.7-.818-2.393-2.959c-.355-.437-.726-.859-1.091-1.281-.479-.515-.967-1.055-1.43-1.6-.288-.34.309-.129.906.448a43.31,43.31,0,0,1,2.923,3.3c.551.695,1.168,1.374,1.755,2.058s1.3,1.492,1.971,2.223c.412.448.823.9,1.256,1.328.643.653,1.317,1.286,2.017,1.873.551.448,1.111.854,1.693,1.24l.381.257c.484.314.6.468.648.628a.288.288,0,0,1,.036.1c0,.082-.232.041-.623-.144a11.655,11.655,0,0,1-1.693-1.029l-.808-.6-.767-.664c-.746-.674-1.456-1.389-2.141-2.12Z" transform="translate(-55.33 -114.248)" fill="#231f20"/>
    <path id="Path_84333" data-name="Path 84333" d="M240.67,296.8l-1.508-1.765-.561-.633-1.93-2.269c-.288-.334-.592-.659-.89-.978-.386-.407-.782-.8-1.142-1.235-.226-.268.3-.17.787.268a28.822,28.822,0,0,1,2.377,2.506c.443.515.952,1.029,1.43,1.569l1.544,1.729.972,1.055c.515.515.988,1.029,1.508,1.544.4.386.844.715,1.256,1.081l.273.232c.324.314.4.453.376.628a.746.746,0,0,1,0,.113c-.036.113-.237.062-.515-.113a12.592,12.592,0,0,1-2.367-2.007q-.823-.844-1.605-1.719Z" transform="translate(-59.772 -116.238)" fill="#231f20"/>
    <path id="Path_84334" data-name="Path 84334" d="M228.582,290.88l.489-.777.17-.288c.211-.324.432-.648.628-.983a3.854,3.854,0,0,0,.226-.463,3.431,3.431,0,0,1,.273-.592c.082-.113.417.2.319.453a5.809,5.809,0,0,1-.684,1.2c-.165.221-.288.478-.432.715l-.479.782c-.1.16-.2.319-.283.484a8.054,8.054,0,0,0-.376.762c-.077.2-.124.412-.18.612l-.046.134c-.062.165-.113.206-.216.216h-.067c-.072,0-.113-.093-.113-.232a2.7,2.7,0,0,1,.319-1.209c.134-.288.288-.561.443-.834Z" transform="translate(-56.483 -115.258)" fill="#231f20"/>
    <path id="Path_84335" data-name="Path 84335" d="M234.083,294.167c.139-.273.283-.515.443-.8.051-.093.1-.2.16-.288.206-.329.427-.653.659-.962.1-.149.2-.283.293-.427a2.368,2.368,0,0,1,.422-.515c.1-.087.247.268.108.458-.252.35-.489.7-.751,1.06a5.456,5.456,0,0,0-.4.7l-.412.792-.237.515c-.113.252-.226.515-.314.772a6.326,6.326,0,0,0-.144.617l-.031.134c-.051.165-.1.211-.232.211h-.087c-.093,0-.149-.1-.144-.237a3.293,3.293,0,0,1,.283-1.178c.108-.283.237-.561.37-.839Z" transform="translate(-59.206 -116.914)" fill="#231f20"/>
    <path id="Path_84336" data-name="Path 84336" d="M244.588,306.568c.051-.093.1-.19.144-.278s0-.072.041-.108l.2-.36a.591.591,0,0,0,.051-.17.231.231,0,0,1,.077-.211c.077-.057.443.149.422.237a1.1,1.1,0,0,1-.221.427.989.989,0,0,0-.113.262l-.139.288a1.912,1.912,0,0,1-.082.18c-.036.093-.082.18-.108.273a1.771,1.771,0,0,0-.026.232.159.159,0,0,1,0,.051c0,.062-.046.072-.154.046H244.6a.211.211,0,0,1-.154-.129.87.87,0,0,1,0-.432c.031-.1.077-.19.113-.288Z" transform="translate(-64.545 -123.84)" fill="#231f20"/>
    <path id="Path_84337" data-name="Path 84337" d="M276.486,299.967c.1-.2.2-.381.309-.561.036-.067.062-.139.1-.206l.437-.674a1.8,1.8,0,0,0,.159-.314,1.03,1.03,0,0,1,.216-.391c.072-.067.458.257.386.417a3.407,3.407,0,0,1-.473.787,2.478,2.478,0,0,0-.262.489l-.283.54c-.057.113-.108.226-.16.34a3.417,3.417,0,0,0-.185.515,4.063,4.063,0,0,0-.031.427v.093c0,.113-.057.144-.2.154h-.1a.211.211,0,0,1-.211-.16,1.508,1.508,0,0,1,.046-.88,4.8,4.8,0,0,1,.237-.607Z" transform="translate(-79.951 -120.141)" fill="#231f20"/>
    <path id="Path_84338" data-name="Path 84338" d="M278.556,302c.118-.232.247-.458.376-.684.046-.082.082-.17.134-.252.17-.283.365-.551.551-.823.082-.124.159-.247.237-.37a2.572,2.572,0,0,1,.324-.458c.077-.087.18.165.087.35-.175.329-.35.659-.556.973-.129.19-.211.412-.319.612s-.226.453-.334.679c-.062.144-.129.283-.185.427a4.592,4.592,0,0,0-.226.664,3.144,3.144,0,0,0-.057.515v.113c0,.139-.051.18-.19.2H278.3a.19.19,0,0,1-.2-.18,2.151,2.151,0,0,1,.134-1.065,6.781,6.781,0,0,1,.314-.731Z" transform="translate(-80.89 -120.91)" fill="#231f20"/>
    <path id="Path_84339" data-name="Path 84339" d="M279.623,300.954c-.1-.211-.19-.422-.288-.628-.031-.077-.082-.144-.113-.221-.118-.268-.232-.515-.365-.792a2.623,2.623,0,0,0-.211-.319,1.662,1.662,0,0,1-.278-.4c-.036-.1.386-.278.515-.118a3.119,3.119,0,0,1,.515.906,4.881,4.881,0,0,0,.3.561c.1.2.206.406.3.612l.2.37a6.278,6.278,0,0,0,.329.54c.093.129.221.232.324.35l.072.072a.175.175,0,0,1,0,.257l-.046.067a.19.19,0,0,1-.247.026,1.893,1.893,0,0,1-.689-.664,4.813,4.813,0,0,1-.35-.612Z" transform="translate(-81.025 -120.434)" fill="#231f20"/>
    <path id="Path_84340" data-name="Path 84340" d="M164.336,455.586s-.849,4.374,20.582,3.267c15.308-.792-3.087-4.013-3.087-4.013a62.818,62.818,0,0,1-9.375,1.652C169,456.718,169,456.718,164.336,455.586Z" transform="translate(-25.667 -196.37)" fill="#231f20"/>
    <path id="Path_84341" data-name="Path 84341" d="M225.835,356.84l-7.286,4.276c-.89.515-1.755,1.075-2.65,1.585-3.149,1.8-6.329,3.55-9.591,5.146-1.451.71-2.912,1.425-4.415,2.032a16.11,16.11,0,0,1-3.015.962,5.89,5.89,0,0,1-1.657.082,2.475,2.475,0,0,1-1.6-.756.823.823,0,0,1-.211-.36c0-.087,0-.134.031-.154a2.645,2.645,0,0,1,.515.134,2.209,2.209,0,0,0,.988.036c.386-.051.834-.144,1.348-.247a26.754,26.754,0,0,0,5.655-2.043c1.868-.87,3.72-1.822,5.588-2.779,2.233-1.147,4.446-2.573,6.653-3.875l7.281-4.384,4.482-2.712c2.254-1.374,4.543-2.727,6.777-4.116,1.734-1.07,3.4-2.2,5.1-3.278.376-.242.736-.489,1.122-.72,1.425-.854,1.945-1.029,2.475-.8a1.507,1.507,0,0,1,.355.154c.314.226-.139.8-1.142,1.487-2.974,2.032-6.211,3.993-9.473,5.964l-7.291,4.389Z" transform="translate(-40.754 -142.941)" fill="#231f20"/>
    <path id="Path_84342" data-name="Path 84342" d="M195.4,195.534a48.653,48.653,0,0,0,4.039,3.154,38.707,38.707,0,0,0,4.353,2.671,26.936,26.936,0,0,0,4.662,1.971,18.215,18.215,0,0,0,4.893.864,11.472,11.472,0,0,0,1.785-.1,11.052,11.052,0,0,0,1.739-.34c.288-.077.556-.2.834-.288l.417-.149c.134-.062.262-.134.4-.2l.787-.391.736-.515.324-.211c.108-.077.2-.17.3-.252l.6-.515c.4-.34.731-.762,1.1-1.137a7.719,7.719,0,0,0,1.389-2.676,22.989,22.989,0,0,0,.731-6.432,88.065,88.065,0,0,0-1.369-13.286c-.648-3.926-1.456-7.847-2.238-11.727-.515-2.49-1.029-4.991-1.441-7.518-.2-1.261-.365-2.537-.468-3.818-.062-.643-.082-1.292-.1-1.935a15.658,15.658,0,0,1,.165-1.955c.118-.813.283-1.147.35-1.106a4.252,4.252,0,0,1,.18,1.117c.082.664.345,1.59.551,2.7s.515,2.413.767,3.839c1.7,10.142,4.389,20.263,5.027,30.873.067,1.59.134,3.19.046,4.821a21.807,21.807,0,0,1-.715,4.924c-.144.406-.252.818-.432,1.214l-.288.6a2.825,2.825,0,0,1-.324.581,12.349,12.349,0,0,1-5.964,4.718,13.635,13.635,0,0,1-5.49.782,19.77,19.77,0,0,1-5.351-1.07,33.606,33.606,0,0,1-4.945-2.161,48.07,48.07,0,0,1-4.543-2.851,56.848,56.848,0,0,1-9.689-8.84,46.09,46.09,0,0,1-3.087-3.957c-.515-.684-.942-1.394-1.389-2.1l-.638-1.091-.556-1.06a.427.427,0,0,0-.237-.237,3.459,3.459,0,0,0-.437-.149c-.365-.1-.756-.175-1.153-.252l-2.4-.443a27.469,27.469,0,0,1-4.775-1.3,13.378,13.378,0,0,1-3.463-1.9,8.979,8.979,0,0,1-2.573-3.087,10.023,10.023,0,0,1-1.029-3.885l-.031-.515V170.4a2.46,2.46,0,0,1,.041-.54l.108-.515a7.72,7.72,0,0,1,.726-1.96,8.83,8.83,0,0,1,2.31-2.8,5.9,5.9,0,0,1,4.708-1.389,3.468,3.468,0,0,1,1.255.515,1.8,1.8,0,0,1,.623.669,2.8,2.8,0,0,1,.3.617c.041.262-.35.242-.973.031a5.341,5.341,0,0,0-2.809.041,6.689,6.689,0,0,0-3.952,3.972,5.145,5.145,0,0,0-.3,1.353,8.068,8.068,0,0,0,.057,1.466,7.461,7.461,0,0,0,.89,2.815,9.237,9.237,0,0,0,4.667,3.751,32.1,32.1,0,0,0,6.581,1.719c.463.087.936.175,1.451.3l.4.113.216.072a2.888,2.888,0,0,1,.3.123,2.738,2.738,0,0,1,.587.365c.087.077.144.18.221.262s.134.185.216.268l.566,1.1.556.952c.175.319.386.628.581.936s.4.623.612.926c.828,1.23,1.76,2.4,2.707,3.55a54.771,54.771,0,0,0,6.319,6.375Z" transform="translate(-26.696 -48.213)" fill="#231f20"/>
    <path id="Path_84343" data-name="Path 84343" d="M229.525,118.366c-2.094.324-4.183.515-6.262.7-1.029.087-2.058.139-3.087.257l-3.036.365a16.689,16.689,0,0,0-2.187.406c-.726.16-1.451.314-2.177.458a37.423,37.423,0,0,0-14.2,6.442l-.7.515-.653.576-1.312,1.158a33.418,33.418,0,0,0-2.336,2.573l-.695.864-.628.916c-.206.309-.432.607-.617.926l-.571.942c-.093.16-.19.319-.278.479l-.247.515c-.16.329-.345.653-.515.988s-.283.669-.437,1.029a7.793,7.793,0,0,0-.345,1.029c-.17.792-.422.782-.607-.1a4.976,4.976,0,0,1-.036-.772v-.479a3.943,3.943,0,0,1,.082-.515,8.814,8.814,0,0,1,.813-2.326,28.919,28.919,0,0,1,5.825-7.5c.6-.515,1.173-1.075,1.8-1.544l1.914-1.42c.648-.453,1.343-.839,2.017-1.256.345-.2.674-.417,1.029-.6l1.07-.515c1.683-.885,3.483-1.544,5.284-2.3l2.773-.885.756-.3c.237-.067.473-.113.71-.17l1.415-.314a57.509,57.509,0,0,1,6.283-.962c2.089-.18,4.158-.334,6.216-.587a44.1,44.1,0,0,0,7.456-1.441,20.139,20.139,0,0,0,5.176-2.29,11.8,11.8,0,0,0,3.8-4,9.159,9.159,0,0,0,1.2-4,10.209,10.209,0,0,0-.612-4.07l-.355-.828c-.129-.268-.283-.515-.417-.8-.566-.967-1-1.544-1.276-2a2.475,2.475,0,0,1-.386-1.153,2.909,2.909,0,0,1,0-.515c.036-.237.293-.262.762-.062a3.74,3.74,0,0,1,.381.19c.134.082.268.185.417.3a5.249,5.249,0,0,1,.463.4c.149.16.3.334.458.515a11.552,11.552,0,0,1,2.46,8.423,11.258,11.258,0,0,1-1.441,4.4,13.106,13.106,0,0,1-2.933,3.571,17.8,17.8,0,0,1-5.861,3.231,38.162,38.162,0,0,1-6.293,1.544Z" transform="translate(-37.446 -22.015)" fill="#231f20"/>
    <path id="Path_84344" data-name="Path 84344" d="M149.632,141.335a12.864,12.864,0,0,0-.16,5.027,16.324,16.324,0,0,0,.417,1.837,18.8,18.8,0,0,0,2.763,6.082,11.13,11.13,0,0,0,2,2.2,14.726,14.726,0,0,0,3.159,1.955c.34.17.221.484-.216.689a2.058,2.058,0,0,1-.88.175,2.511,2.511,0,0,1-1.1-.288,12.133,12.133,0,0,1-3.36-2.727,13.94,13.94,0,0,1-2.3-3.571,26.694,26.694,0,0,1-1.791-4.826,15.735,15.735,0,0,1-.324-5.66,11.66,11.66,0,0,1,.931-3.391,10.672,10.672,0,0,1,3.278-4.152,14.923,14.923,0,0,1,3.489-2.089c.278-.108.545-.232.828-.329,1.07-.329,1.451-.257,1.76.134a2.06,2.06,0,0,1,.211.278c.16.334-.2.72-.9.978-.262.093-.515.2-.772.319l-.762.324c-.252.118-.515.252-.741.376a5.407,5.407,0,0,0-.72.391,10.219,10.219,0,0,0-2.573,2l-.406.448-.35.515-.18.242-.154.262-.3.515a9.632,9.632,0,0,0-.818,2.31Z" transform="translate(-17.601 -39.674)" fill="#231f20"/>
    <path id="Path_84345" data-name="Path 84345" d="M209.988,52.006a31.151,31.151,0,0,0-14.361,4.24c-.813.453-1.544.978-2.326,1.492a20,20,0,0,0-2.161,1.713,33.68,33.68,0,0,0-3.484,3.427,43.736,43.736,0,0,0-3.087,3.859,80.929,80.929,0,0,0-5.218,8.459c-1.42,2.573-2.748,5.259-4.152,7.867a39.822,39.822,0,0,1-3.01,4.9c-.273.4-.617.762-.926,1.137a9.369,9.369,0,0,1-1.091,1.029,5.814,5.814,0,0,1-2.753,1.312c-1.322.077-1.029-.237-.149-.633a7.116,7.116,0,0,0,1.544-1.183,24.435,24.435,0,0,0,1.765-2.058,34,34,0,0,0,2.984-4.749c.911-1.672,1.78-3.391,2.671-5.109a95.926,95.926,0,0,1,5.917-10.137,44.149,44.149,0,0,1,9.653-10.77,32.792,32.792,0,0,1,6.982-3.936,31.9,31.9,0,0,1,3.777-1.328,29.206,29.206,0,0,1,3.916-.87,27.786,27.786,0,0,1,9.828.2,24.938,24.938,0,0,1,3.6,1.029,23.18,23.18,0,0,1,3.381,1.621,21.1,21.1,0,0,1,5.66,4.847,23.628,23.628,0,0,1,3.041,4.862,11.32,11.32,0,0,1,1.153,5.748,12.17,12.17,0,0,1-.17,1.3,12.436,12.436,0,0,1-.34,1.266,10.805,10.805,0,0,1-1.544,3.031,3.6,3.6,0,0,1-.612.664,2.639,2.639,0,0,1-.576.324,2.969,2.969,0,0,1-.484.2c-.206.036-.19-.247,0-.787s.566-1.3.993-2.274a10.985,10.985,0,0,0,1.081-4.487,10.806,10.806,0,0,0-1.117-4.518,19.846,19.846,0,0,0-6.175-7.615,22.466,22.466,0,0,0-14.135-4.029Z" transform="translate(-26.729)" fill="#231f20"/>
    <path id="Path_84346" data-name="Path 84346" d="M227.13,246.16s2.573,10.234,11,11.13,6.555-5.037,6.555-5.037A28.733,28.733,0,0,1,227.13,246.16Z" transform="translate(-56.153 -95.067)" fill="#231f20"/>
    <path id="Path_84347" data-name="Path 84347" d="M157.219,326.871a115.873,115.873,0,0,0-3.875,19.9,39.523,39.523,0,0,0,.149,9.962,15.277,15.277,0,0,0,1.544,4.533,9.01,9.01,0,0,0,3.164,3.355,11.675,11.675,0,0,0,3.185,1.266,17.357,17.357,0,0,0,3.514.345c.6,0,1.2-.041,1.8-.077a15.258,15.258,0,0,0,1.8-.216l.9-.139.9-.19,1.8-.381.792-.17.787-.206,1.575-.417,1.58-.422,1.544-.484c1.029-.329,2.094-.623,3.123-.978l3.087-1.065c1.029-.34,2.058-.746,3.087-1.122s2.058-.751,3.087-1.163c2.027-.823,4.07-1.6,6.077-2.48l3.02-1.292,2.995-1.348c2-.885,3.967-1.847,5.948-2.789s3.916-1.96,5.871-2.943l2.9-1.544,1.446-.777,1.425-.808,2.532-1.446c.844-.484,1.662-1.029,2.49-1.513s1.672-1,2.47-1.544l2.418-1.621.6-.406.581-.432,1.163-.864,1.163-.864c.391-.283.741-.612,1.111-.921l1.091-.931.381-.324c.057-.031,0-.1,0-.159v-.242c-.036-.957-.051-1.919-.1-2.871a48.027,48.027,0,0,0-1.055-7.281,37.361,37.361,0,0,0-2.264-6.967c-.262-.551-.484-1.127-.777-1.662l-.849-1.626-.978-1.544c-.334-.515-.71-.988-1.065-1.482a24.246,24.246,0,0,0-5.2-5.089l-.8-.566c-.232-.144-.417-.273-.556-.376-.283-.211-.391-.334-.345-.376s.252,0,.6.108c.175.057.386.134.633.226a7.51,7.51,0,0,1,.8.391,19.554,19.554,0,0,1,4.477,3.257,24.956,24.956,0,0,1,4.754,6.38,37.272,37.272,0,0,1,2.856,7.3,46.4,46.4,0,0,1,1.322,7.667c.051.648.139,1.292.16,1.94l.062,1.94.031,1.163v.587c0,.046-.046.057-.067.087l-.18.154-.612.515L235.79,337.1a73.188,73.188,0,0,1-6.252,4.538c-.515.35-1.06.726-1.605,1.055l-1.641,1.029c-1.091.669-2.177,1.348-3.293,1.971l-3.339,1.894-3.386,1.811c-4.543,2.357-9.149,4.631-13.852,6.658-5.614,2.48-11.4,4.878-17.335,7.013-2.974,1.06-5.974,2.058-9.03,2.918l-2.279.566c-.762.216-1.544.345-2.326.515a32.934,32.934,0,0,1-4.739.762,19.748,19.748,0,0,1-5.356-.268,11.834,11.834,0,0,1-5-2.218A11.181,11.181,0,0,1,153.041,361a8.827,8.827,0,0,1-.515-1.266l-.226-.638c-.072-.216-.108-.432-.165-.653-.1-.432-.221-.864-.3-1.3l-.2-1.322a48.366,48.366,0,0,1,.108-10.466c.365-3.453.947-6.869,1.652-10.255a166.2,166.2,0,0,1,7.307-24.421c1.142-3,2.393-5.974,3.689-8.922s2.707-5.85,4.188-8.706,3.031-5.66,4.7-8.428c.808-1.389,1.693-2.727,2.542-4.086s1.76-2.676,2.7-3.972c.391-.551.777-1.106,1.173-1.652l1.214-1.616c.4-.54.8-1.07,1.225-1.59l1.348-1.683.34-.309a.792.792,0,0,1,.448-.093,3.459,3.459,0,0,1,.931.242c.473.19.864.376,1.281.571l2.418,1.189c1.6.792,3.185,1.575,4.8,2.305a64.018,64.018,0,0,0,9.874,3.658,32.012,32.012,0,0,0,6.175,1.029,18.343,18.343,0,0,0,4.826-.278,14.058,14.058,0,0,0,3.087-.978,18.481,18.481,0,0,0,1.909-.993l1.307-.746c.355-.19.772-.515,1.029-.612s.232,0,.1.293a5.66,5.66,0,0,1-.936,1.317,10.09,10.09,0,0,1-2.285,1.873,12.725,12.725,0,0,1-3.844,1.544,21.93,21.93,0,0,1-8.372.062,44.561,44.561,0,0,1-8.068-2.2c-2.624-.962-5.187-2.1-7.718-3.324-1.256-.607-2.511-1.24-3.751-1.863-.617-.309-1.24-.623-1.847-.9-.844-.37-.566-.247-.638-.247l-1.441,1.785c-.515.695-1.065,1.41-1.6,2.115s-1.029,1.43-1.544,2.151-1.029,1.451-1.518,2.2c-2,2.948-3.859,6-5.614,9.133q-2.516,4.451-4.729,9.087t-4.168,9.38a172.966,172.966,0,0,0-6.689,19.424Z" transform="translate(-19.389 -106.452)" fill="#231f20"/>
    <path id="Path_84348" data-name="Path 84348" d="M253.353,322.594l-14.181,8.747-5.145,3.237c-3.046,1.868-6.1,3.73-9.2,5.537s-6.144,3.633-9.185,5.5l-8.058,5.043a51.5,51.5,0,0,1-5.362,2.969,12.093,12.093,0,0,1-3,.957,3.859,3.859,0,0,1-3.175-.741c-.129-.118-.232-.221-.319-.314a2.249,2.249,0,0,1-.165-.252c-.082-.139-.093-.211-.051-.232s.134,0,.273.087a5.3,5.3,0,0,0,.556.288,3.447,3.447,0,0,0,.391.149c.144.041.3.067.463.1a3.463,3.463,0,0,0,1.091-.051,13.294,13.294,0,0,0,2.737-.936,53.724,53.724,0,0,0,5.336-2.871c1.76-1.029,3.5-2.146,5.259-3.237,3.509-2.182,7.049-4.358,10.656-6.442,4.333-2.46,8.665-5.274,12.977-7.986l14.222-8.933,8.789-5.454q3.334-2.058,6.689-4.06,1.688-1,3.4-1.966c.571-.319,1.142-.633,1.729-.942a16.633,16.633,0,0,1,1.827-.849,11.145,11.145,0,0,1,6.226-.1,12.3,12.3,0,0,1,2.887,1.194,10.88,10.88,0,0,1,1.322.875l.16.134.118.087.3.232.6.479c.695.561,1.364,1.127,2.017,1.765a10.806,10.806,0,0,1,2.243,2.866,3.6,3.6,0,0,1,.324.973,2.058,2.058,0,0,1-.057.741,1.74,1.74,0,0,1-.247.515c-.077.077-.165.051-.257-.046a1.287,1.287,0,0,1-.139-.2l-.062-.134c-.036-.046-.067-.1-.1-.154a12.41,12.41,0,0,0-1.487-1.981,28.638,28.638,0,0,0-3.854-3.5l-.262-.2-.129-.1a1.2,1.2,0,0,1-.118-.093l-.051-.041c-.149-.118-.319-.242-.489-.355a9.736,9.736,0,0,0-1.075-.643,10.983,10.983,0,0,0-2.346-.9,9.437,9.437,0,0,0-4.924.067l-.242.087-.293.129c-.19.077-.391.18-.592.278-.4.19-.808.417-1.214.628-.808.443-1.621.9-2.429,1.369-4.806,2.794-9.591,5.747-14.351,8.706Z" transform="translate(-40.795 -125.788)" fill="#231f20"/>
    <path id="Path_84349" data-name="Path 84349" d="M357.226,326.75a1.621,1.621,0,0,0,.669.067,1.542,1.542,0,0,0,.324-.067l.17-.062h.057a.146.146,0,0,0,.144-.139.456.456,0,0,0,0-.113.38.38,0,0,0-.041-.087c-.036-.067-.067-.129-.108-.2a9.848,9.848,0,0,0-.916-1.122,19.913,19.913,0,0,0-1.919-1.924c-.34-.3-.695-.6-1.055-.87-.185-.139-.365-.273-.551-.4l-.283-.19a.371.371,0,0,0-.082-.046l-.113-.046a15.153,15.153,0,0,0-2.377-.551,16.286,16.286,0,0,1-3.134-.643c-.633-.237.515-1.785,1.739-1.544,1.081.2,2.156.427,3.247.726.273.077.551.16.839.262l.237.082c.077.031.144.051.293.124l.19.1.1.067.18.129a12.959,12.959,0,0,1,1.353,1.111,33.048,33.048,0,0,1,3.046,2.917,8.665,8.665,0,0,1,.715,1,4.17,4.17,0,0,1,.35.725,1.873,1.873,0,0,1,.129.849,1.25,1.25,0,0,1-.329.762,4.255,4.255,0,0,1-.7.515l-.18.108-.16.067a2.469,2.469,0,0,1-.324.123,3.446,3.446,0,0,1-.684.144,3.6,3.6,0,0,1-1.631-.237,6.829,6.829,0,0,1-1.333-.741,13.758,13.758,0,0,1-1.7-1.338l-.365-.334c-.077-.082-.134-.093-.288-.144-.319-.1-.648-.2-.973-.293a22.038,22.038,0,0,0-3.087-.545l-.669-.067c-.823-.108-1.055-.232-1.2-.72a2.852,2.852,0,0,1-.1-.34c-.067-.365.334-.664,1.029-.674a13.764,13.764,0,0,1,3,.309q.741.154,1.482.355l.736.211.365.113.34.113a.477.477,0,0,1,.175.062l.139.123.515.463.4.334a8.318,8.318,0,0,0,.8.623,5.067,5.067,0,0,0,1.569.818Z" transform="translate(-114.191 -130.325)" fill="#231f20"/>
    <path id="Path_84350" data-name="Path 84350" d="M330.974,343.738a17.444,17.444,0,0,0,2.573-2.64c.268-.36.515-.746.756-1.122s.468-.669.684-1.029l.17-.262.237-.417c.165-.283.309-.587.484-.839a7.012,7.012,0,0,0,1.029.118,4.062,4.062,0,0,0,.551-.026l1.2-.118c.376-.036.767-.077,1.183-.082a2.061,2.061,0,0,1,.381,0,1.07,1.07,0,0,1,.4.1,1.5,1.5,0,0,1,.345.232,3.568,3.568,0,0,1,.268.247,5.079,5.079,0,0,0,.978.751,4.553,4.553,0,0,0,1.06.484c.247.082.247.376-.031.69a1.544,1.544,0,0,1-1.636.4,4.21,4.21,0,0,1-1.477-.993c-.252-.232-.17-.159-.18-.185h0a.4.4,0,0,0-.087,0,1.241,1.241,0,0,0-.139,0c-.381,0-.839.077-1.312.129-.242,0-.489.041-.751.051h-.669l-.134-.051c-.067.031-.118.139-.175.221l-.345.612a15.513,15.513,0,0,1-.854,1.364,20.441,20.441,0,0,1-2.629,3.087c-.3.288-.623.556-.926.834l-.988.767a18.075,18.075,0,0,1-3.288,1.837c-.458.175-.89.4-1.353.551l-.689.257c-.232.072-.473.124-.71.185s-.417.118-.633.16c-.808.082-1.075-.057-1.245-.515a1.864,1.864,0,0,1-.113-.309c-.067-.35.232-.669.736-.823a21.386,21.386,0,0,0,4.389-1.631,15.529,15.529,0,0,0,2.938-2.058Z" transform="translate(-102.645 -139.317)" fill="#231f20"/>
    <path id="Path_84351" data-name="Path 84351" d="M208.836,361.482c-.2.731-.37,1.472-.515,2.218-.057.278-.051.556-.1.828-.19.962-.381,1.94-.484,2.918a11.1,11.1,0,0,0,0,1.307,7.2,7.2,0,0,1,0,1.662c-.036.175-.334.185-.653.062a1.065,1.065,0,0,1-.715-.72,9.689,9.689,0,0,1,.093-3.55c.149-.7.118-1.441.216-2.156.113-.792.262-1.574.422-2.351.108-.479.206-.957.324-1.43.165-.72.376-1.436.515-2.151.129-.561.19-1.127.3-1.693a1.132,1.132,0,0,1,.1-.365c.211-.422.386-.515.762-.484a.808.808,0,0,1,.252.026c.268.051.432.314.473.674l.046.4a3.089,3.089,0,0,1,0,.381,7.207,7.207,0,0,1-.087.746c-.041.247-.072.515-.124.746l-.185.736c-.18.731-.391,1.461-.545,2.207Z" transform="translate(-46.014 -148.18)" fill="#231f20"/>
    <path id="Path_84352" data-name="Path 84352" d="M227.491,292.822a20.355,20.355,0,0,0,5.8,3.689c.391.134.792.257,1.183.386s.808.17,1.209.273a9.859,9.859,0,0,0,4.23.031l.515-.134a4.568,4.568,0,0,0,.458-.2,1.657,1.657,0,0,0,.695-.463,1.255,1.255,0,0,0,.273-.715,3.184,3.184,0,0,0-.1-.957,12.062,12.062,0,0,0-1.8-3.494c-.247-.36-.515-.715-.756-1.07s-.489-.731-.726-1.106a13.047,13.047,0,0,1-.679-1.168,9.721,9.721,0,0,1-.515-1.3c-.087-.293-.036-.458.062-.468a1.031,1.031,0,0,1,.479.232l.823.6c.16.123.345.252.515.406a5.355,5.355,0,0,1,.479.515l.834,1.029c.278.355.515.741.777,1.122a22.293,22.293,0,0,1,1.425,2.429,7.126,7.126,0,0,1,.859,3.036,3,3,0,0,1-.617,1.873,2.83,2.83,0,0,1-.731.659,6.558,6.558,0,0,1-.741.365,4.571,4.571,0,0,1-.89.309,5,5,0,0,1-.9.206l-.9.139-.9.026a12.1,12.1,0,0,1-1.785-.1c-.592-.062-1.158-.221-1.734-.34a19.213,19.213,0,0,1-6.689-3.494,18.031,18.031,0,0,1-1.76-1.487c-.283-.257-.571-.515-.849-.772l-.782-.834c-.391-.422-.8-.834-1.178-1.271l-1.075-1.353c-.751-.875-1.369-1.842-2.058-2.763-.252-.365-.515-.71-.772-1.075l-.72-1.1c-.473-.736-1-1.441-1.425-2.2-.19-.34-.391-.659-.576-1.029a6.355,6.355,0,0,1-.576-1.42,1.353,1.353,0,0,1,.072-.787,1.657,1.657,0,0,1,.123-.283c.082-.118.237-.067.468.1a3.6,3.6,0,0,1,.839.9c.453.628.859,1.286,1.266,1.955l1.312,1.96.643,1c.216.334.463.643.695.967.468.638.916,1.3,1.394,1.935l1.127,1.369.556.69c.2.226.406.432.607.643l1.214,1.286c.427.4.875.777,1.312,1.168Z" transform="translate(-50.679 -110.861)" fill="#231f20"/>
    <path id="Path_84353" data-name="Path 84353" d="M272.457,290.517a11.64,11.64,0,0,1,.515,1.312c.2.623.391,1.384.571,2.115s.268,1.446.4,1.991l.17.674c.051.17.087.293.1.35s.072.252.139.432c.036.093.067.2.1.3s.093.19.134.288a4.271,4.271,0,0,0,.273.484,1.1,1.1,0,0,0,.185.211,1.482,1.482,0,0,0,.242.262,1.665,1.665,0,0,0,.273.232,1.542,1.542,0,0,0,.257.159c.139.041.1.077.242,0a1.43,1.43,0,0,0,.314-.34,5.109,5.109,0,0,0,.515-.972,23.891,23.891,0,0,0,.839-2.408l1.24-4.209a13.075,13.075,0,0,1,.849-2.151,6.812,6.812,0,0,1,1.4-1.986c.185-.175.669.427.581.551a9.469,9.469,0,0,0-1.029,1.873,18.1,18.1,0,0,0-.967,2.866c-.293,1.137-.515,2.171-.545,2.259-.154.792-.3,1.59-.515,2.4-.087.376-.185.751-.309,1.132a7.317,7.317,0,0,1-.7,1.605,2.959,2.959,0,0,1-.71.8,1.914,1.914,0,0,1-1.24.4,2.675,2.675,0,0,1-1.06-.309c-.134-.077-.278-.154-.412-.242l-.35-.262a5.658,5.658,0,0,1-.653-.659,4.543,4.543,0,0,1-.484-.751,8.939,8.939,0,0,1-.772-2.264c-.165-.746-.288-1.477-.391-2.182-.087-.818-.19-1.611-.329-2.357-.046-.216-.072-.448-.124-.653l-.072-.319-.108-.293a.849.849,0,0,1-.026-.422,2.619,2.619,0,0,1,.16-.448c.082-.185.34-.144.643,0A1.709,1.709,0,0,1,272.457,290.517Z" transform="translate(-77.445 -115.003)" fill="#231f20"/>
    <path id="Path_84354" data-name="Path 84354" d="M405.618,290.139l-3.087,4.07c-.376.515-.715,1.029-1.1,1.513-1.348,1.729-2.727,3.437-4.116,5.146-.612.756-1.178,1.544-1.755,2.331a21.509,21.509,0,0,1-2.352,2.9c-.278.273-.515,0-.566-.437a2.573,2.573,0,0,1,.437-1.734l1.091-1.544,1.147-1.5c.777-1,1.569-1.981,2.4-2.953.988-1.163,1.842-2.5,2.763-3.756l3.051-4.116,1.883-2.573c.936-1.292,1.909-2.573,2.82-3.88.71-1.029,1.333-2.058,2.022-3.087.154-.226.293-.453.458-.674.617-.818.936-.993,1.441-.834a2.137,2.137,0,0,1,.319.1c.3.134.319.695-.077,1.292-1.106,1.842-2.4,3.715-3.741,5.583l-3.026,4.163Z" transform="translate(-136.495 -110.988)" fill="#231f20"/>
    <path id="Path_84355" data-name="Path 84355" d="M348.677,364.332c-.947,1.117-1.868,2.249-2.794,3.391-.334.412-.633.859-.973,1.276l-1.055,1.276c-.381.443-.638.772-1.338,1.508l-.926-.051L341,371.68l-1.178-.087c-.834-.057-1.672-.062-2.5-.046-1.06,0-2.12.077-3.164,0-.324-.026-.324-.355-.067-.715a2.017,2.017,0,0,1,1.41-.8c.556-.041,1.111-.082,1.662-.087s1.106,0,1.657.036,1.1.062,1.647.108l.818.077.406.041.1.041h.031a.258.258,0,0,0,.108-.062,1.226,1.226,0,0,0,.123-.134l.134-.185c.2-.247.4-.515.592-.767.386-.515.762-1.065,1.158-1.585q1.343-1.765,2.758-3.494l1.739-2.12c.87-1.07,1.791-2.115,2.65-3.19.669-.828,1.255-1.708,1.9-2.573.139-.19.262-.381.417-.561.566-.669.828-.8,1.317-.607.108.041.216.067.309.113.283.154.329.669-.026,1.194a51.785,51.785,0,0,1-3.509,4.631c-.926,1.132-1.883,2.259-2.8,3.411Z" transform="translate(-107.989 -147.85)" fill="#231f20"/>
    <path id="Path_84356" data-name="Path 84356" d="M385.064,334.277a2.573,2.573,0,0,0,1.286-.154,8,8,0,0,0,1.492-.679c.36-.206.69-.463,1.029-.695a15.5,15.5,0,0,0,1.739-1.379,9.092,9.092,0,0,0,1.446-1.647,3.088,3.088,0,0,0,.571-1.667,1.281,1.281,0,0,0-.386-.854,4.116,4.116,0,0,0-.957-.6c-.226-.118-.159-.324.134-.484a1.415,1.415,0,0,1,1.436.093,2.362,2.362,0,0,1,1.029,1.59,3.164,3.164,0,0,1-.216,1.729,7.069,7.069,0,0,1-1.755,2.4,21.942,21.942,0,0,1-2.64,2.233,8.984,8.984,0,0,1-3.571,1.518,2.428,2.428,0,0,1-1.4-.206c-.113-.077-.221-.159-.329-.247a2.932,2.932,0,0,1-.247-.319,1.925,1.925,0,0,1-.262-.679,1.986,1.986,0,0,1,.134-1.075,3.088,3.088,0,0,1,.515-.828,6.78,6.78,0,0,1,1.384-1.158,11.411,11.411,0,0,1,2.429-1.25,5.693,5.693,0,0,1,.6-.175c.777-.154,1.142,0,1.225.412a.915.915,0,0,1,.041.247.514.514,0,0,1-.206.324,1.029,1.029,0,0,1-.468.216,10.723,10.723,0,0,0-1.966.762,7.631,7.631,0,0,0-1.785,1.163,1.5,1.5,0,0,0-.556.957.885.885,0,0,0,.093.324c.026.046.031.051.129.1Z" transform="translate(-132.031 -133.807)" fill="#231f20"/>
    <path id="Path_84357" data-name="Path 84357" d="M380.5,347.87a9.392,9.392,0,0,1-2.825.921,3.69,3.69,0,0,1-1.219,0,2.11,2.11,0,0,1-.659-.242,1.349,1.349,0,0,1-.293-.216,1.091,1.091,0,0,1-.232-.278,1.487,1.487,0,0,1-.216-.679,1.069,1.069,0,0,1,0-.34,2.145,2.145,0,0,1,.041-.324,3.293,3.293,0,0,1,1.189-1.677,9.028,9.028,0,0,1,1.379-.916,3.643,3.643,0,0,1,2.058-.592c.257.026.18.334.046.648a1.333,1.333,0,0,1-.607.756,7.749,7.749,0,0,0-1.544.777,3.828,3.828,0,0,0-1.127,1.029c-.134.257-.165.391-.1.515a.262.262,0,0,0,.16.108,2.377,2.377,0,0,0,.381.046,6.036,6.036,0,0,0,2.326-.607,9.075,9.075,0,0,0,1.379-.772,7.366,7.366,0,0,0,1.755-1.605,4.553,4.553,0,0,0,.7-1.621c.031-.124.041-.247.077-.365.108-.437.211-.551.689-.587h.3a.623.623,0,0,1,.592.726,4.153,4.153,0,0,1-.566,1.96,7.4,7.4,0,0,1-1.25,1.621,10.656,10.656,0,0,1-2.413,1.749Z" transform="translate(-127.958 -141.519)" fill="#231f20"/>
    <path id="Path_84358" data-name="Path 84358" d="M410.667,277.895c.916.057,1.832.108,2.748.139.334,0,.669-.031,1,0,1.178.041,2.362.113,3.535.087a12.956,12.956,0,0,0,1.544-.1c.638-.087,1.312-.206,1.863-.288.139,0,.3.149.232.458a1.24,1.24,0,0,1-.772.813,13.629,13.629,0,0,1-2.089.515,12.349,12.349,0,0,1-2.094.041c-.839-.051-1.693.082-2.542.087-.936,0-1.868,0-2.8-.026l-1.719-.036c-.87,0-1.739-.062-2.6-.036-.669,0-1.328.16-2,.2-.149,0-.293.036-.443.036a.952.952,0,0,1-.576-.19,1.389,1.389,0,0,1-.237-.489,1.316,1.316,0,0,0-.062-.226.458.458,0,0,1,.134-.36c.051-.067.118-.144.2-.232a.556.556,0,0,1,.268-.149,10.76,10.76,0,0,1,3.633-.35l2.768.093Z" transform="translate(-141.848 -110.392)" fill="#231f20"/>
    <path id="Path_84359" data-name="Path 84359" d="M357.775,296.635q4.029-5.094,8.006-10.224l2.851-3.777,5.089-6.607,2.506-3.324q1.225-1.683,2.5-3.36a26.571,26.571,0,0,1,2.475-2.892,9.262,9.262,0,0,1,3.273-2.187c.211-.067.417-.139.628-.2l.679-.108a5.658,5.658,0,0,1,.664-.041h.34l.391.057.2.036.2.077a2,2,0,0,1,.988.777,2.574,2.574,0,0,1,.36.72,3.68,3.68,0,0,1,.123.731,4.8,4.8,0,0,1-.653,2.64,4.945,4.945,0,0,1-1.858,1.883c-.515.257-.767.242-.813.087s.1-.453.324-.818a13.157,13.157,0,0,0,.7-1.425,6.765,6.765,0,0,0,.458-1.863,1.873,1.873,0,0,0-.057-.726.608.608,0,0,0-.206-.288,3.278,3.278,0,0,0-1.477.077,7.682,7.682,0,0,0-3.406,2.3,39.7,39.7,0,0,0-2.928,3.653c-.962,1.271-1.919,2.609-2.938,3.869-2.413,3.051-4.765,6.334-7.178,9.483q-3.983,5.192-8.022,10.342-2.49,3.164-4.976,6.334l-7.543,9.571c-1.94,2.47-3.741,4.971-5.686,7.394-.437.515-.844,1.065-1.3,1.59a14.82,14.82,0,0,1-1.909,1.971,2.629,2.629,0,0,1-1.2.551,1.814,1.814,0,0,1-.437.041c-.17-.041-.087-.268.129-.638a12.5,12.5,0,0,1,1.163-1.749c3.257-4.435,6.859-9.035,10.466-13.651l8.063-10.317Z" transform="translate(-109.904 -103.688)" fill="#231f20"/>
    <path id="Path_84360" data-name="Path 84360" d="M335.266,299.122c-.854-.772-10.908-13.785-13.4-11.788-1.868,1.492,8.181,11.716,9.524,12.864Z" transform="translate(-102.029 -114.954)" fill="#231f20"/>
    <path id="Path_84361" data-name="Path 84361" d="M315.482,425.662c-.16-.854-.319-1.713-.463-2.573-.057-.314-.154-.617-.2-.931-.154-1.117-.262-2.243-.314-3.37-.041-.515-.072-1-.134-1.492,0-.319-.062-.638-.077-.957a3.823,3.823,0,0,1,.1-.962c.046-.2.376-.154.7,0a1.132,1.132,0,0,1,.669.808c.087,1.214.221,2.418.247,3.684a12.435,12.435,0,0,0,.406,2.269c.17.834.35,1.672.545,2.506.118.515.242,1.029.376,1.544.2.777.381,1.544.633,2.331.185.592.515,1.142.684,1.729.036.134.093.257.118.391.108.515.031.689-.309.89a2.539,2.539,0,0,1-.226.129c-.262.118-.556,0-.777-.34a8.984,8.984,0,0,1-1.384-3.134c-.237-.828-.448-1.672-.643-2.526Z" transform="translate(-98.468 -177.149)" fill="#231f20"/>
    <path id="Path_84362" data-name="Path 84362" d="M302.184,451.648c-6.519.041-13.039.113-19.553.252l-7.132.216c-4.194.1-8.361.252-12.565.406s-8.392.242-12.586.334l-11.161.283c-4.744.1-9.509.278-14.253.113-1.482-.051-1.286-.35-.041-.7a28.1,28.1,0,0,1,6.278-.875c9.679-.37,19.347-.515,29.1-.741,2.918-.057,5.886-.216,8.891-.365s6.01-.278,9-.37c6.571-.211,13.147-.35,19.723-.458l12.138-.149c6.128-.062,12.287-.051,18.375-.036l7.049.026c1.173,0,2.346.036,3.52.077s2.352.1,3.6.262a2.626,2.626,0,0,1,.443.067,1.417,1.417,0,0,1,.232.046,2.266,2.266,0,0,1,.309.093,3.248,3.248,0,0,1,.592.268,1.545,1.545,0,0,1,.252.19.467.467,0,0,0,.124.1l.082.129a3.545,3.545,0,0,1,.293,1.086l.057.453.041.365a24.183,24.183,0,0,1,.2,4.116,3.438,3.438,0,0,1-.515,1.847,2.618,2.618,0,0,1-.386.515c-.4.319-.679-1.178-.921-3.952-.057-.612-.118-1.23-.19-1.852-.031-.309-.077-.623-.129-.926l-.031-.154v-.051c0-.036-.031-.051,0-.1a.237.237,0,0,0-.124-.041h-.062l-.283-.046c-.386-.057-.818-.1-1.245-.134-.864-.072-1.755-.113-2.655-.149-1.8-.067-3.628-.1-5.47-.129-3.684-.051-7.43-.082-11.176-.087-6.555,0-13.147,0-19.723.082Z" transform="translate(-54.58 -193.801)" fill="#231f20"/>
    <path id="Path_84363" data-name="Path 84363" d="M124.052,454.1l2.712.1h.988c1.163.072,2.331.159,3.494.211.515,0,1.029.026,1.544,0a10.584,10.584,0,0,1,1.976.077c.206.041.175.237,0,.443a1.42,1.42,0,0,1-.864.489c-.664.072-1.333.134-2,.175s-1.338,0-2.017,0a23.39,23.39,0,0,0-2.465.1c-.911.026-1.822,0-2.732,0h-1.677c-.849,0-1.7-.036-2.573,0-.653,0-1.292.165-1.94.185a3.956,3.956,0,0,1-.427,0c-.515-.026-.71-.134-.823-.463a1.811,1.811,0,0,1-.077-.216c-.051-.242.165-.458.551-.587a11.458,11.458,0,0,1,3.566-.561c.453,0,.906-.041,1.358-.051s.911,0,1.364,0Z" transform="translate(-2.77 -195.963)" fill="#231f20"/>
    <path id="Path_84364" data-name="Path 84364" d="M234.627,186.083a4.363,4.363,0,0,1-.473,2.485,2.923,2.923,0,0,1-2.377,1.415,3.911,3.911,0,0,1-1.749-.324,8.989,8.989,0,0,1-2.2-1.508,20.679,20.679,0,0,1-1.77-1.785c-.489-.545-.993-1.075-1.487-1.6a11.191,11.191,0,0,1-1.7-2.177c-.134-.242.1-.422.515-.448a1.924,1.924,0,0,1,1.348.443,25.732,25.732,0,0,1,1.93,1.966l1.842,1.991a6.107,6.107,0,0,0,2.573,1.636,2.15,2.15,0,0,0,.648.087,1.251,1.251,0,0,0,.515-.18,1.132,1.132,0,0,0,.365-.412,1.991,1.991,0,0,0,.17-.659,6.118,6.118,0,0,0-.288-2.058,17.062,17.062,0,0,0-1.286-3.185c-.417-.8-.988-1.5-1.461-2.269-.108-.17-.226-.329-.324-.515a1.472,1.472,0,0,1-.221-.8.8.8,0,0,1,.293-.515,2.632,2.632,0,0,1,.221-.206c.237-.154.679-.057,1.065.324a14.845,14.845,0,0,1,2.732,4.3,12.889,12.889,0,0,1,1.163,4.019Z" transform="translate(-54.064 -61.684)" fill="#231f20"/>
    <path id="Path_84365" data-name="Path 84365" d="M259.432,179a4,4,0,0,1-.314,1.23,1.888,1.888,0,0,1-1.153,1.075,1.126,1.126,0,0,1-.391.077h-.2a1.593,1.593,0,0,1-.165,0l-.638-.1a.875.875,0,0,1-.283-.072l-.257-.1a3.086,3.086,0,0,1-.515-.211c-.216-.129-.458-.232-.664-.37a7.126,7.126,0,0,1-.6-.432,11.367,11.367,0,0,1-1.652-1.852,21,21,0,0,1-1.235-2.058l-.993-1.837a8.671,8.671,0,0,1-.967-2.48c-.051-.278.211-.329.561-.221a1.919,1.919,0,0,1,1.029.792c.854,1.5,1.605,3.036,2.506,4.487a7.24,7.24,0,0,0,2.058,2.182,5.213,5.213,0,0,0,.664.407c.113.057.232.087.345.139l.175.067a.86.86,0,0,0,.149.031l.3.062a.453.453,0,0,0,.185,0,.437.437,0,0,0,.257-.288,3.021,3.021,0,0,0,.129-.89,9.044,9.044,0,0,0-.057-1.029,18.356,18.356,0,0,0-.684-3.206,23.023,23.023,0,0,0-1-2.341c-.077-.17-.17-.329-.237-.515a1.286,1.286,0,0,1-.1-.741.828.828,0,0,1,.278-.468,2.4,2.4,0,0,1,.206-.2c.232-.175.592,0,.973.412a8.234,8.234,0,0,1,1.153,2.151,19.786,19.786,0,0,1,.731,2.388,15.811,15.811,0,0,1,.345,1.883,10.985,10.985,0,0,1,.072,2.058Z" transform="translate(-66.963 -58.128)" fill="#231f20"/>
    <path id="Path_84366" data-name="Path 84366" d="M244.1,165.828a20.463,20.463,0,0,1-1.672-5.886c-.036-.376-.108-.741-.129-1.117s-.036-.751-.036-1.127a9.524,9.524,0,0,1,.875-3.962,7.677,7.677,0,0,1,2.64-3.087,10.707,10.707,0,0,1,3.216-1.456,10.117,10.117,0,0,1,2.228-.355,4.271,4.271,0,0,1,2.3.463c.242.134.3.314.206.417a1.544,1.544,0,0,1-.515.3c-.216.1-.484.237-.777.355a3,3,0,0,1-.967.18,8.026,8.026,0,0,0-6.561,3.211,5.49,5.49,0,0,0-.834,2.2,11.043,11.043,0,0,0-.077,2.48,17.284,17.284,0,0,0,1.219,5.465c.216.54.453,1.075.7,1.605a12.417,12.417,0,0,0,.839,1.544,26.355,26.355,0,0,0,3.149,4.338,28.07,28.07,0,0,0,3.046,2.763c.232.185.479.35.71.545.849.731,1.029,1.081.906,1.611a2.574,2.574,0,0,1-.077.355c-.139.35-.695.288-1.466-.129a18.4,18.4,0,0,1-3.087-2.439,26.24,26.24,0,0,1-2.712-3.02,27.75,27.75,0,0,1-3.2-5.233Z" transform="translate(-63.498 -47.815)" fill="#231f20"/>
    <path id="Path_84367" data-name="Path 84367" d="M220.529,160.746c.3.026.437.334.4.746a.823.823,0,0,1-.3.458c-.165.036-.319.072-.453.087a6.478,6.478,0,0,0-.684-.093,5.28,5.28,0,0,0-.957.036c-.391.041-.777.087-1.173.113a8.883,8.883,0,0,0-1.194.232q-.6.143-1.178.345c-.175.046-.35.108-.515.139a3.312,3.312,0,0,0-.916.278,4.43,4.43,0,0,0-.834.468.6.6,0,0,0-.237.216,7.522,7.522,0,0,1-.792.669c-.381.283-.72.623-.828.669a4.633,4.633,0,0,0-.7.473,6.016,6.016,0,0,0-.653.545c-.062.057-.093.139-.2.154a.674.674,0,0,0-.463.309,3.263,3.263,0,0,1-.515.561,2.1,2.1,0,0,1-.386.211c-.118.057-.293-.108-.3-.154,0-.139-.154-.113-.247-.154a.263.263,0,0,1-.093-.046,4.934,4.934,0,0,1,.149-.864,3.993,3.993,0,0,1,.324-.942s.1-.139.226-.334l.226-.329.293-.36c.206-.247.4-.515.581-.7s.324-.34.37-.391a1.457,1.457,0,0,1,.355-.247s.391-.35.777-.674a6.406,6.406,0,0,1,.828-.633c.175-.093.34-.216.515-.309a1.755,1.755,0,0,1,.587-.17.587.587,0,0,0,.221-.087,8.042,8.042,0,0,1,1.935-.664c.34-.087.674-.19,1.029-.252a.787.787,0,0,1,.19,0,1.247,1.247,0,0,0,.242,0,13.981,13.981,0,0,1,2.506-.082,9.138,9.138,0,0,1,1.328.386C220.086,160.37,220.4,160.751,220.529,160.746Z" transform="translate(-46.531 -53.214)" fill="#231f20"/>
    <path id="Path_84368" data-name="Path 84368" d="M261.819,221.151a3.8,3.8,0,0,1,0,.587,3.354,3.354,0,0,1-.1.515,1.816,1.816,0,0,1-.4.751,1.276,1.276,0,0,1-.473.4,1.353,1.353,0,0,1-1.1,0,1.847,1.847,0,0,1-.767-.772l-.124-.226-.113-.242a4.389,4.389,0,0,1-.2-.515,4.021,4.021,0,0,1-.17-.659.967.967,0,0,1,.087-.6c.072-.139.381,0,.695.113s.638.19.653.3l.031.123h0a.077.077,0,0,0-.026.036.617.617,0,0,0,0,.37c.062.288.242.19.329.134a.386.386,0,0,0,.18-.365,1.065,1.065,0,0,0-.057-.36,1.234,1.234,0,0,0-.139-.3.288.288,0,0,0-.108-.113h0l.031-.2h0l.154.17h0a.942.942,0,0,0-.154.638,1.256,1.256,0,0,1,0,.139c0,.165-.129.211-.515.252l-.273.031a.571.571,0,0,1-.653-.35,1.657,1.657,0,0,1,.108-1.245,2.176,2.176,0,0,1,.4-.566l.062-.062.046-.046.118-.093a1.276,1.276,0,0,1,.54-.211,1.24,1.24,0,0,1,.515,0,.962.962,0,0,1,.206.067,2.13,2.13,0,0,1,.89.978,4.559,4.559,0,0,1,.4,1.322Z" transform="translate(-71.315 -81.764)" fill="#231f20"/>
    <path id="Path_84369" data-name="Path 84369" d="M359.856,123.582a44.609,44.609,0,0,0,5.886.437c2,.051,4.013.041,6.025,0,1.466,0,2.938-.1,4.4-.139,5.187-.129,10.373-.314,15.57-.515,2.3-.082,4.631-.206,6.905-.314,1.472-.067,2.943-.144,4.425-.165a25.291,25.291,0,0,1,4.477.232c.484.093.684.262.628.386s-.314.237-.7.36a14.614,14.614,0,0,1-3.849.571c-5.948.144-11.943.515-18.009.643-3.6.067-7.379.34-11.089.453-4.075.113-8.156.206-12.267-.036-.859-.057-1.724-.129-2.573-.268a9.947,9.947,0,0,1-1.328-.293,3.839,3.839,0,0,1-.7-.283,1.642,1.642,0,0,1-.684-.638l-.16-.334c-.046-.1-.1-.2-.134-.3-.072-.2-.149-.4-.216-.607-.124-.406-.232-.813-.319-1.214a37.1,37.1,0,0,1-.684-5.732c-.1-1.909-.144-3.808-.17-5.7-.062-2.933-.118-5.8-.18-8.7,0-.633-.036-1.256-.051-1.894-.036-2.372,0-3.087.458-3.6a2.848,2.848,0,0,1,.278-.376c.314-.324.854.7.962,2.475.365,5.228.149,10.656.36,16.064.062,1.6.149,3.206.334,4.77.087.782.216,1.544.37,2.3.077.376.175.731.278,1.081.057.175.118.334.175.515a2.41,2.41,0,0,0,.1.232l.051.108v.051h0a.6.6,0,0,0,.149.067,1.333,1.333,0,0,0,.206.077,6.906,6.906,0,0,0,1.029.232Z" transform="translate(-118.252 -21.926)" fill="#231f20"/>
    <path id="Path_84370" data-name="Path 84370" d="M389.331,89.021l-8.289.149c-1.029,0-2.017.082-3.026.1-3.556,0-7.091.149-10.661.211-1.585,0-3.175.062-4.749.057a32.025,32.025,0,0,1-6.072-.422c-.623-.123-.515-.417.067-.659a6.6,6.6,0,0,1,2.686-.4c4.034.206,8.1,0,12.241,0,2.48,0,5.063-.185,7.59-.262l8.325-.257,5.145-.154c2.6-.082,5.207-.134,7.78-.237,2-.077,3.967-.257,5.948-.365.437,0,.864-.046,1.3-.057,1.636-.036,2.156.149,2.506.545a1.812,1.812,0,0,1,.232.283c.16.3-.515.587-1.693.751-.88.093-1.775.18-2.676.257s-1.816.1-2.737.139c-1.837.077-3.7.129-5.573.175l-8.356.185Z" transform="translate(-118.768 -17.667)" fill="#231f20"/>
    <path id="Path_84371" data-name="Path 84371" d="M401.923,63.326a6.447,6.447,0,0,0-4.42-.664c-.278.062-.556.154-.834.232s-.551.216-.828.314a17.166,17.166,0,0,0-5.346,3.561,16.38,16.38,0,0,0-1.94,2.2c-.731,1.029-1.42,2.058-2.177,3.062-.242.309-.484.129-.6-.319a2.758,2.758,0,0,1,.257-1.868,16.667,16.667,0,0,1,2.346-3.283,16.228,16.228,0,0,1,3.087-2.707,19.645,19.645,0,0,1,4.42-2.5,9.777,9.777,0,0,1,2.82-.556,7.986,7.986,0,0,1,2.871.422,10.074,10.074,0,0,1,3.031,1.724,18.838,18.838,0,0,1,3.375,3.8c.756,1.06,1.508,2.1,2.187,3.185a7.813,7.813,0,0,1,.437.715,3,3,0,0,1,.37,1.029.942.942,0,0,1-.057.35,2.026,2.026,0,0,1-.185.324c-.062.093-.108.2-.165.262s-.237.118-.515.036a1.544,1.544,0,0,1-.762-.6c-.736-.9-1.292-1.868-1.919-2.8s-1.245-1.878-1.93-2.748a11.454,11.454,0,0,0-3.545-3.128Z" transform="translate(-133.14 -5.079)" fill="#231f20"/>
    <path id="Path_84372" data-name="Path 84372" d="M460.157,114.263l.144-3.535v-1.286c.062-1.518.123-3.031.134-4.549,0-.669,0-1.343-.051-2.007-.046-.854-.118-1.708-.087-2.573,0-.268.185-.247.376-.036a2.058,2.058,0,0,1,.468,1.111,41.937,41.937,0,0,1,.278,5.269c0,1.06.087,2.156.123,3.237.041,1.189.051,2.372.051,3.561v2.2c0,1.106,0,2.218.036,3.314.036.854.165,1.693.221,2.537,0,.185.046.365.051.556,0,.695-.093.921-.515,1.07-.093.031-.19.077-.283.1-.314.067-.581-.216-.689-.72a18.84,18.84,0,0,1-.334-2.305c-.051-.787-.082-1.58-.072-2.377,0-1.183.057-2.377.082-3.561Z" transform="translate(-169.203 -24.17)" fill="#231f20"/>
    <path id="Path_84373" data-name="Path 84373" d="M377.114,110.482c3.051.108,6.02-.715,9.066-.726a1.094,1.094,0,0,0,0-2.187c-3.046,0-6.015.834-9.066.726C375.7,108.249,375.71,110.436,377.114,110.482Z" transform="translate(-128.45 -27.788)" fill="#231f20"/>
    <path id="Path_84375" data-name="Path 84375" d="M401.655,111.772c-6.175-1.353-7.024,9.689-1.672,11.351,7.049,2.187,8.5-9.6,1.858-10.991-1.374-.283-1.96,1.822-.581,2.11,3.983.834,3.432,8.274-.7,6.766-2.64-.962-2.66-7.826.515-7.127,1.374.3,1.96-1.806.581-2.11Z" transform="translate(-138.347 -29.772)" fill="#231f20"/>
    <path id="Path_84377" data-name="Path 84377" d="M239.367,300.178c.087-.17.18-.34.273-.515.031-.062.057-.129.087-.19l.376-.659a2.015,2.015,0,0,0,.149-.3,1.107,1.107,0,0,1,.221-.365c.067-.067.314.221.247.355a5.738,5.738,0,0,1-.412.731,2.845,2.845,0,0,0-.221.473l-.247.515-.16.324c-.082.165-.17.329-.242.515s-.093.268-.144.4l-.031.093c-.057.1-.1.118-.221.077l-.077-.031a.185.185,0,0,1-.118-.206,2.979,2.979,0,0,1,.257-.7l.247-.515Z" transform="translate(-61.84 -120.301)" fill="#231f20"/>
    <path id="Path_84378" data-name="Path 84378" d="M362.251,400.839a10.235,10.235,0,0,1-.942,4.358l-.252.515c-.093.165-.2.324-.3.484a7.724,7.724,0,0,1-.653.911c-.226.3-.515.551-.751.823-.123.134-.293.257-.437.386a3.248,3.248,0,0,1-.473.355,6.021,6.021,0,0,1-3.216,1.06,11.464,11.464,0,0,1-5.346-1.389,27.491,27.491,0,0,1-4.477-2.866c-1.23-.957-2.418-1.976-3.545-3.031a20.125,20.125,0,0,1-3.844-4.564c-.3-.561,0-.607.489-.334a8.963,8.963,0,0,1,2.058,1.6,47.447,47.447,0,0,0,4.3,3.952,38.791,38.791,0,0,0,4.739,3.4,12.509,12.509,0,0,0,3.2,1.348,7.049,7.049,0,0,0,3.283.1,4.718,4.718,0,0,0,1.544-.725,5.881,5.881,0,0,0,.653-.6l.324-.34c.1-.113.19-.242.288-.365a7.717,7.717,0,0,0,.947-1.59,8.171,8.171,0,0,0,.515-1.8,9.885,9.885,0,0,0,.113-2.346,14.484,14.484,0,0,0-.35-2.377,32.979,32.979,0,0,0-2.573-6.972c-.844-1.744-1.837-3.381-2.753-5.094-.2-.381-.417-.741-.6-1.137-.71-1.451-.726-2.032-.376-2.516a2.059,2.059,0,0,1,.211-.314c.134-.129.314-.057.566.149a3.407,3.407,0,0,1,.792,1.065,96.958,96.958,0,0,1,4.9,9.565,29.91,29.91,0,0,1,1.374,3.993,17.05,17.05,0,0,1,.623,4.317Z" transform="translate(-109.923 -160.862)" fill="#231f20"/>
    <path id="Path_84379" data-name="Path 84379" d="M111.629,131.423a35.81,35.81,0,0,1,3.653,1.292,2.1,2.1,0,0,0,1.436-.134c.087-.031,1.029-.484.669-.628a39,39,0,0,0-3.921-1.394,2.485,2.485,0,0,0-1.544.288c-.206.1-.751.432-.273.576Z" transform="translate(0 -38.936)" fill="#221f1f"/>
    <path id="Path_84380" data-name="Path 84380" d="M350.218,425.962a18.751,18.751,0,0,1-3.237-2.094,11.18,11.18,0,0,1-1.086-.844,39.528,39.528,0,0,1-3.293-3.478l-1.374-1.585a10.844,10.844,0,0,1-1.605-2.135c-.134-.252.1-.381.458-.376a1.935,1.935,0,0,1,1.23.515c.638.628,1.235,1.281,1.842,1.919s1.168,1.328,1.749,2.007a15.818,15.818,0,0,0,2.418,2.151,19.433,19.433,0,0,0,2.912,1.991,10.5,10.5,0,0,0,1.96.859,7.2,7.2,0,0,0,3.154.391,5.547,5.547,0,0,0,2.233-.844c.16-.077.283-.206.432-.288a1.585,1.585,0,0,1,.648-.273.957.957,0,0,1,.556.252c.087.072.185.129.257.2a.515.515,0,0,1,.149.479.978.978,0,0,1-.35.638,6.6,6.6,0,0,1-2.341,1.333,7.93,7.93,0,0,1-2.8.319,10.729,10.729,0,0,1-3.931-1.075Z" transform="translate(-110.744 -177.248)" fill="#231f20"/>
    <path id="Path_84381" data-name="Path 84381" d="M399.874,287.1l2.295-2.573c.283-.309.515-.653.828-.957.515-.515,1.06-1.06,1.652-1.544a9.81,9.81,0,0,1,.952-.72,2.825,2.825,0,0,1,1.343-.515.8.8,0,0,1,.149,0h.839l.978-.062a4.992,4.992,0,0,1,2.645.288c.278.144.077.463-.226.751a1.739,1.739,0,0,1-1.075.581c-.736,0-1.544.067-2.4.1h-.792v-.278h0v.273h0a.734.734,0,0,0-.108,0,4.737,4.737,0,0,0-.89.468,12.351,12.351,0,0,0-2.151,2.1c-.772.828-1.544,1.683-2.295,2.542l-1.394,1.6c-.7.813-1.436,1.611-2.125,2.429-.515.633-1,1.317-1.544,1.94-.123.139-.242.278-.376.406-.515.489-.782.515-1.117.334a1.419,1.419,0,0,1-.232-.129c-.216-.175-.154-.515.1-.931.422-.576.823-1.189,1.286-1.765s.947-1.163,1.425-1.755c.715-.875,1.466-1.739,2.2-2.624Z" transform="translate(-137.497 -111.825)" fill="#231f20"/>
    <path id="Path_84382" data-name="Path 84382" d="M378.624,353.49a7.07,7.07,0,0,1-1.348.406,2.727,2.727,0,0,1-.545.072,2.2,2.2,0,0,1-.515-.067l-.252-.067-.242-.124a1.58,1.58,0,0,1-.7-.756,2.253,2.253,0,0,1-.221-.834,1.183,1.183,0,0,1,.376-1.029c.093-.077.211.072.309.247s.211.355.19.448a1.3,1.3,0,0,0,.309,1.081.988.988,0,0,0,.808.113,4.032,4.032,0,0,0,1.106-.3,7.544,7.544,0,0,0,.689-.319,8.571,8.571,0,0,0,1-.6c.247-.18.443-.422.684-.623a1.4,1.4,0,0,1,.16-.139c.216-.149.355-.129.515.093.041.051.082.1.118.149a.514.514,0,0,1,0,.515,3.988,3.988,0,0,1-1.266,1.117,10.944,10.944,0,0,1-1.194.633Z" transform="translate(-127.835 -145.915)" fill="#231f20"/>
    <path id="Path_84383" data-name="Path 84383" d="M387.2,343.427a7.935,7.935,0,0,1-.885.216c-.113,0-.211.072-.329.082a2.192,2.192,0,0,1-1.276-.273,3.2,3.2,0,0,1-.484-.329,2.93,2.93,0,0,1-.247-.262.684.684,0,0,1-.113-.329c0-.077.211-.154.437-.211s.463-.113.515-.067c.2.139.247.118.458.257a.339.339,0,0,0,.237.041l.262-.067a4.265,4.265,0,0,0,.653-.175,4,4,0,0,0,.406-.17,2.616,2.616,0,0,0,.6-.334,1.959,1.959,0,0,0,.329-.432,1.029,1.029,0,0,1,.062-.1c.108-.093.2-.051.432.154l.159.139a.6.6,0,0,1,.237.515,1.6,1.6,0,0,1-.653.962,3.71,3.71,0,0,1-.767.427Z" transform="translate(-132.242 -141.218)" fill="#231f20"/>
    <path id="Path_84384" data-name="Path 84384" d="M346.1,378.118a7.928,7.928,0,0,1-.839.72,3.366,3.366,0,0,1-.515.329,2.235,2.235,0,0,1-.617.206,6.42,6.42,0,0,1-.782.139c-.9.062-1.765,0-2.629,0h-1.142a5.808,5.808,0,0,1-1.461-.093c-.154-.036-.118-.2,0-.37a.988.988,0,0,1,.638-.37,24.759,24.759,0,0,1,2.9-.129,8.048,8.048,0,0,0,1.729-.242c.149-.036.3-.067.437-.108a2.224,2.224,0,0,0,.34-.134,3.51,3.51,0,0,0,.689-.515c.283-.268.561-.561.839-.864l1.281-1.374c.324-.36.6-.762.921-1.127.072-.082.134-.17.206-.247.293-.278.443-.3.72-.108.062.041.129.082.185.129a.515.515,0,0,1,.062.669,18.124,18.124,0,0,1-1.544,2.058c-.437.479-.89.957-1.374,1.466Z" transform="translate(-109.98 -156.985)" fill="#231f20"/>
    <path id="Path_84385" data-name="Path 84385" d="M225.746,295.782c.515.561,1.029,1.132,1.544,1.677l.834.777a9.737,9.737,0,0,0,.854.746c.443.334.885.669,1.333.983a15.436,15.436,0,0,0,5.264,2.418c.417.108.849.144,1.276.216a10.853,10.853,0,0,0,1.292.062c1.1-.041,2.2-.118,3.309-.252.345-.031.329.093.067.288a4.633,4.633,0,0,1-.561.35,2.511,2.511,0,0,1-.87.3,8.923,8.923,0,0,1-1.775.185l-.9-.041-.453-.026-.443-.067-.885-.139c-.293-.067-.581-.149-.87-.226a11.315,11.315,0,0,1-1.688-.6,8.827,8.827,0,0,1-.978-.453c-.324-.165-.659-.314-.973-.515l-.936-.566-.463-.288c-.149-.1-.288-.216-.432-.324l-.947-.731a11.649,11.649,0,0,1-.885-.787l-.87-.808-.8-.875c-.319-.36-.674-.7-.962-1.086l-.9-1.127c-.473-.561-.87-1.178-1.292-1.78s-.844-1.189-1.214-1.811c-.6-.957-1.256-1.852-1.8-2.825l-.37-.633a5.4,5.4,0,0,1-.406-.885.957.957,0,0,1,0-.479,1.027,1.027,0,0,1,.041-.17c.036-.067.123-.031.257.082a2.839,2.839,0,0,1,.515.587c1.091,1.652,2.151,3.427,3.324,5.145.453.623.875,1.271,1.343,1.878s.957,1.2,1.451,1.791Z" transform="translate(-52.119 -114.531)" fill="#231f20"/>
    <path id="Path_84386" data-name="Path 84386" d="M281.883,296.736l-.515,2.449c-.067.3-.113.607-.19.906a9.779,9.779,0,0,1-.556,1.58,3.036,3.036,0,0,1-1.122,1.379,1.9,1.9,0,0,1-1.605.093,4.147,4.147,0,0,1-1.605-.993c-.139-.134-.036-.221.18-.237a1.677,1.677,0,0,1,.818.175,2.418,2.418,0,0,0,1.441.37c.376,0,.72-.35,1.029-.828a7.107,7.107,0,0,0,.664-2.058c.185-.8.334-1.621.489-2.444l.293-1.544c.154-.772.345-1.544.556-2.305a11.5,11.5,0,0,1,.607-1.76,2.9,2.9,0,0,1,.2-.376c.288-.453.515-.515.731-.432a1.152,1.152,0,0,1,.159.062c.144.1.123.35-.036.623a12.538,12.538,0,0,0-1.029,2.907c-.185.782-.36,1.6-.515,2.413Z" transform="translate(-79.987 -116.679)" fill="#231f20"/>
    <path id="Path_84387" data-name="Path 84387" d="M277.986,330.023a8.671,8.671,0,0,1,.309,1.235,6.666,6.666,0,0,1,.072.669,3.834,3.834,0,0,1-.057.942,1.909,1.909,0,0,1-.592,1.137,1.976,1.976,0,0,1-2.13.144,2.572,2.572,0,0,1-.813-.767,2.654,2.654,0,0,1-.226-.386,2.979,2.979,0,0,1-.165-.376,10.931,10.931,0,0,1-.432-1.317,2.624,2.624,0,0,1,0-1.806c.1-.211.422-.031.741.165s.669.4.669.6a8.1,8.1,0,0,0,.309,1.266c.072.2.144.4.221.571.031.082.093.19.1.226a.56.56,0,0,0,0,.129.288.288,0,0,0,.515,0,.515.515,0,0,0,.072-.165.69.69,0,0,0,0-.232,4.565,4.565,0,0,0-.17-.936,6.111,6.111,0,0,0-.448-1.158,4.513,4.513,0,0,0-.885-1.276l.087-.031a.33.33,0,0,0,.082-.1c0-.046.031-.113.031-.1a.031.031,0,0,0,0-.031.118.118,0,0,0,.031.077,1.057,1.057,0,0,0,.113.144l.077.057h0v.082a1.379,1.379,0,0,0,0,.268,4.739,4.739,0,0,0,.072.612l.067.247c.051.283-.077.329-.427.623l-.226.211a.515.515,0,0,1-.448.134.813.813,0,0,1-.489-.36,2.954,2.954,0,0,1-.417-1.626,2.619,2.619,0,0,1,.237-.983,2.011,2.011,0,0,1,.2-.34,1.765,1.765,0,0,1,.2-.216,1.272,1.272,0,0,1,.278-.216,1.6,1.6,0,0,1,.448-.18,1.678,1.678,0,0,1,.515,0,1.332,1.332,0,0,1,.427.124,2.648,2.648,0,0,1,.329.2l.031.026.051.046a4.486,4.486,0,0,1,.376.4,7.661,7.661,0,0,1,1.271,2.243Z" transform="translate(-78.724 -134.282)" fill="#231f20"/>
    <path id="Path_84388" data-name="Path 84388" d="M306.1,354.534a30.92,30.92,0,0,0-1.1-4.091c-.17-.515-.407-.947-.581-1.43a21.332,21.332,0,0,0-2.629-4.749,12.014,12.014,0,0,0-.772-.937l-.854-.849c-.386-.345-.792-.664-1.173-1.029s-.818-.638-1.209-.988c-.515-.427.556-.581,1.7,0,.463.314.957.6,1.394.957s.839.751,1.245,1.147a13.142,13.142,0,0,1,1.106,1.286,12.947,12.947,0,0,1,.921,1.425,40.072,40.072,0,0,1,1.914,3.638,28.142,28.142,0,0,1,1.389,4.271c.19.9.406,1.785.545,2.686l.18,1.029.139,1.029.144,1.029.124,1.029c.149,1.029.293,2.084.437,3.128a5.145,5.145,0,0,1,.057.69,2.8,2.8,0,0,1-.093.921,1.029,1.029,0,0,1-.355.422c-.067.041-.123.1-.18.129s-.19,0-.314-.17a1.652,1.652,0,0,1-.345-.695,12.771,12.771,0,0,1-.324-1.379c-.093-.468-.175-.937-.252-1.41s-.16-.942-.237-1.415-.108-.962-.19-1.436c-.206-1.415-.406-2.835-.736-4.224Z" transform="translate(-90.388 -140.661)" fill="#231f20"/>
    <path id="Path_84389" data-name="Path 84389" d="M446.144,256.131c1.106-.962,2.223-1.909,3.4-2.779.319-.237.515-.643.129-.916a1.338,1.338,0,0,0-1.384.139c-1.3.957-2.526,2.007-3.746,3.087-.345.3-.139.72.226.849a1.456,1.456,0,0,0,1.374-.365Z" transform="translate(-161.611 -98.05)" fill="#221f1f"/>
    <path id="Path_84390" data-name="Path 84390" d="M451.453,269.917c1.189-.448,2.4-.834,3.6-1.3.293-.118.767-.468.515-.818s-.978-.17-1.292-.046c-1.178.473-2.388.854-3.571,1.3-.3.113-.767.473-.515.818s.973.165,1.292.046Z" transform="translate(-164.403 -105.472)" fill="#221f1f"/>
    <path id="Path_84391" data-name="Path 84391" d="M119.657,140.582a7.61,7.61,0,0,0-3.432,1.734c-.386.345.34.432.545.422a2.542,2.542,0,0,0,1.492-.551,3.5,3.5,0,0,1,1.6-.834c.232-.051,1.117-.319,1.029-.684s-1.029-.134-1.225-.087Z" transform="translate(-2.26 -43.758)" fill="#221f1f"/>
    <path id="Path_84392" data-name="Path 84392" d="M401.655,111.772c-6.175-1.353-7.024,9.689-1.672,11.351,7.049,2.187,8.5-9.6,1.858-10.991-1.374-.283-1.96,1.822-.581,2.11,3.983.834,3.432,8.274-.7,6.766-2.64-.962-2.66-7.826.515-7.127,1.374.3,1.96-1.806.581-2.11Z" transform="translate(-124.347 -29.772)" fill="#231f20"/>
  </g>
</svg>
