<svg xmlns="http://www.w3.org/2000/svg" width="72.807" height="55.266" viewBox="0 0 72.807 55.266">
  <g id="Images" transform="translate(-1.459 -6.962)">
    <path id="Path_84320" data-name="Path 84320" d="M37.1,27.446a4.525,4.525,0,0,0,5.344-3.886,4.525,4.525,0,0,0-3.886-5.344A4.635,4.635,0,0,0,33.216,22.1,4.813,4.813,0,0,0,37.1,27.446Z" transform="translate(19.641 6.944)" fill="#989898"/>
    <path id="Path_84321" data-name="Path 84321" d="M61.779,14.734,24.7,8.257a10.665,10.665,0,0,0-12.307,8.582L7.857,42.586a10.665,10.665,0,0,0,8.582,12.307L53.521,61.37a10.665,10.665,0,0,0,12.307-8.582L70.2,27.365A10.76,10.76,0,0,0,61.779,14.734ZM23.888,11.819,60.97,18.3A7.158,7.158,0,0,1,66.8,26.555L62.427,51.978l-6.477-9.23A6.781,6.781,0,0,0,46.4,41.129L43.967,42.91h-.162L35.547,31.089a6.781,6.781,0,0,0-9.554-1.619L11.905,39.347l3.886-21.7A7.084,7.084,0,0,1,23.888,11.819Z" transform="translate(3.87 0.71)" fill="#989898"/>
    <path id="Path_84322" data-name="Path 84322" d="M36.516,10.748a6.62,6.62,0,0,1,4.7,1.133l5.829.972A11.285,11.285,0,0,0,36.03,7.024L23.4,8.643l12.307,2.105Z" transform="translate(13.588 0)" fill="#989898"/>
    <path id="Path_84323" data-name="Path 84323" d="M16.423,54.716A7.192,7.192,0,0,1,8.65,48.4l-3.4-26.394a7.176,7.176,0,0,1,6.315-8.1l2.753-.324A10.97,10.97,0,0,1,16.261,9.7l-5.182.648A11.186,11.186,0,0,0,1.525,22.654l3.4,26.394A11.186,11.186,0,0,0,17.232,58.6l10.687-1.3-9.392-1.619A12.208,12.208,0,0,0,16.423,54.716Z" transform="translate(0 1.696)" fill="#989898"/>
  </g>
</svg>
