<svg xmlns="http://www.w3.org/2000/svg" width="38.477" height="38.477" viewBox="0 0 38.477 38.477">
  <g id="noun-new-page-4644257" transform="translate(-2 -2)">
    <path id="Path_84420" data-name="Path 84420" d="M7.771,2A5.771,5.771,0,0,0,2,7.771V34.705a5.771,5.771,0,0,0,5.771,5.771h8.85a2.693,2.693,0,0,0,2.693-2.693A16.545,16.545,0,0,1,35.859,21.238h1.847a2.77,2.77,0,0,0,2.77-2.77V7.771A5.771,5.771,0,0,0,34.705,2Zm3.848,7.7A1.924,1.924,0,1,1,9.7,7.771,1.924,1.924,0,0,1,11.619,9.7Zm3.848,1.924A1.924,1.924,0,1,0,13.543,9.7,1.924,1.924,0,0,0,15.467,11.619Zm7.7-1.924a1.924,1.924,0,1,1-1.924-1.924A1.924,1.924,0,0,1,23.162,9.7Z" transform="translate(0 0)" fill-rule="evenodd"/>
    <path id="Path_84421" data-name="Path 84421" d="M21.879,14a1.97,1.97,0,0,1,1.97,1.97v3.939h3.939a1.97,1.97,0,0,1,0,3.939H23.848v3.939a1.97,1.97,0,1,1-3.939,0V23.848H15.97a1.97,1.97,0,0,1,0-3.939h3.939V15.97A1.97,1.97,0,0,1,21.879,14Z" transform="translate(10.719 10.719)"/>
  </g>
</svg>
