<svg xmlns="http://www.w3.org/2000/svg" xmlns:xlink="http://www.w3.org/1999/xlink" width="42.569" height="32.283" viewBox="0 0 42.569 32.283">
  <defs>
    <clipPath id="clip-path">
      <rect id="Rectangle_6196" data-name="Rectangle 6196" width="42.569" height="32.283" fill="none"/>
    </clipPath>
  </defs>
  <g id="Group_36637" data-name="Group 36637" transform="translate(0 0)">
    <g id="Group_36636" data-name="Group 36636" transform="translate(0 0)" clip-path="url(#clip-path)">
      <path id="Path_84428" data-name="Path 84428" d="M41.7.819A2.905,2.905,0,0,0,39.663,0H3.073c-.111,0-.222,0-.328,0A2.915,2.915,0,0,0,.113,2.09,6.158,6.158,0,0,0,.007,3.765V29.382a2.911,2.911,0,0,0,2.9,2.9H39.728a2.913,2.913,0,0,0,2.692-1.965,3.177,3.177,0,0,0,.148-1.064V2.909A2.952,2.952,0,0,0,41.7.819M3.707,19.2a.47.47,0,0,1,.463-.463h9.159a.47.47,0,0,1,.462.463v2.591a.47.47,0,0,1-.462.463H4.17a.428.428,0,0,1-.329-.139.419.419,0,0,1-.134-.324Zm22.573,8.974a.465.465,0,0,1-.463.462h-.037c-.874.033-1.758,0-2.632,0H4.17a.47.47,0,0,1-.463-.462V25.58a.47.47,0,0,1,.463-.463h.037c.875-.032,1.758,0,2.632,0H25.818a.47.47,0,0,1,.463.463Zm12.582,0a.424.424,0,0,1-.139.328.419.419,0,0,1-.324.134H29.241a.47.47,0,0,1-.463-.462V25.58a.47.47,0,0,1,.463-.463H38.4a.47.47,0,0,1,.463.463Zm0-6.384a.47.47,0,0,1-.463.463h-.037c-.875.032-1.758,0-2.633,0H16.751a.425.425,0,0,1-.328-.139.42.42,0,0,1-.135-.324V19.2a.471.471,0,0,1,.463-.463h.038c.874-.032,1.757,0,2.632,0H38.4a.47.47,0,0,1,.463.463Z" transform="translate(0 0)"/>
    </g>
  </g>
</svg>
