<svg xmlns="http://www.w3.org/2000/svg" width="42.001" height="42.001" viewBox="0 0 42.001 42.001">
  <g id="noun-upload-6204100" transform="translate(-2 -1.979)">
    <path id="Path_84396" data-name="Path 84396" d="M54.937,10.032a1.4,1.4,0,0,1-1.977-.1L49.1,5.641V17.389a1.4,1.4,0,0,1-2.8,0V5.641L42.441,9.928a1.4,1.4,0,0,1-2.081-1.872l4.219-4.686a4.2,4.2,0,0,1,6.244,0l4.219,4.686A1.4,1.4,0,0,1,54.937,10.032Z" transform="translate(-11.399 0)"/>
    <path id="Path_84397" data-name="Path 84397" d="M5.347,12.034A8.1,8.1,0,0,1,13.512,4.8H25.764a1.4,1.4,0,1,0,0-2.8H13.512A10.9,10.9,0,0,0,2.56,11.772a112.283,112.283,0,0,0,0,22.434,10.909,10.909,0,0,0,10.957,9.781H32.459A10.9,10.9,0,0,0,43.4,34.27a110.537,110.537,0,0,0,.577-13.405,1.4,1.4,0,0,0-2.8.057,103.989,103.989,0,0,1-.37,10.944,8.035,8.035,0,0,0-13.385-.213L23.8,27.375A9.8,9.8,0,0,0,8.012,28.51l-2.754,4.4A108.892,108.892,0,0,1,5.347,12.034Z" transform="translate(0 -0.006)"/>
  </g>
</svg>
