<svg xmlns="http://www.w3.org/2000/svg" width="42" height="42" viewBox="0 0 42 42">
  <g id="noun-size-5015904" transform="translate(-1.25 -1.25)">
    <path id="Path_84398" data-name="Path 84398" d="M2.75,8.715V36.067a1.465,1.465,0,1,0,2.931,0V8.715a1.465,1.465,0,0,0-2.931,0Z" transform="translate(1.431 5.718)" fill="#a0a0a0" fill-rule="evenodd"/>
    <path id="Path_84399" data-name="Path 84399" d="M36.067,2.75H8.715a1.465,1.465,0,0,0,0,2.931H36.067a1.465,1.465,0,1,0,0-2.931Z" transform="translate(5.718 1.431)" fill="#a0a0a0" fill-rule="evenodd"/>
    <path id="Path_84400" data-name="Path 84400" d="M33.144,38.009a4.775,4.775,0,0,0,3.466-1.5,5.145,5.145,0,0,0,1.4-3.54V11.794a5.145,5.145,0,0,0-1.4-3.54,4.775,4.775,0,0,0-3.466-1.5H11.615a4.775,4.775,0,0,0-3.466,1.5,5.145,5.145,0,0,0-1.4,3.54v21.17a5.145,5.145,0,0,0,1.4,3.54,4.775,4.775,0,0,0,3.466,1.5Zm0-2.931H11.615a1.858,1.858,0,0,1-1.342-.592,2.206,2.206,0,0,1-.592-1.522V11.794a2.206,2.206,0,0,1,.592-1.522,1.858,1.858,0,0,1,1.342-.592h21.53a1.858,1.858,0,0,1,1.342.592,2.206,2.206,0,0,1,.592,1.522v21.17a2.206,2.206,0,0,1-.592,1.522A1.858,1.858,0,0,1,33.144,35.078Z" transform="translate(5.241 5.241)" fill="#a0a0a0" fill-rule="evenodd"/>
    <path id="Path_84401" data-name="Path 84401" d="M25.964,8.215A1.466,1.466,0,0,0,24.5,6.75H12.358a1.466,1.466,0,0,0-1.465,1.465v7.371a3.025,3.025,0,0,0,1.184,2.37,3.944,3.944,0,0,0,2.45.83h7.8a3.944,3.944,0,0,0,2.45-.83,3.025,3.025,0,0,0,1.184-2.37ZM23.033,9.681v5.906c0,.039-.051.055-.084.082a.992.992,0,0,1-.619.188h-7.8a.992.992,0,0,1-.619-.188c-.033-.027-.084-.043-.084-.082V9.681h9.21Z" transform="translate(9.193 5.244)" fill="#a0a0a0" fill-rule="evenodd"/>
    <path id="Path_84402" data-name="Path 84402" d="M8.576,21.25H2.715a1.465,1.465,0,1,0,0,2.931H8.576a1.465,1.465,0,0,0,0-2.931Z" transform="translate(0 19.069)" fill="#a0a0a0" fill-rule="evenodd"/>
    <path id="Path_84403" data-name="Path 84403" d="M10.181,8.576V2.715a1.465,1.465,0,1,0-2.931,0V8.576a1.465,1.465,0,0,0,2.931,0Z" transform="translate(5.721)" fill="#a0a0a0" fill-rule="evenodd"/>
    <path id="Path_84404" data-name="Path 84404" d="M8.576,7.25H2.715a1.465,1.465,0,1,0,0,2.931H8.576a1.465,1.465,0,0,0,0-2.931Z" transform="translate(0 5.721)" fill="#a0a0a0" fill-rule="evenodd"/>
    <path id="Path_84405" data-name="Path 84405" d="M24.181,8.576V2.715a1.465,1.465,0,1,0-2.931,0V8.576a1.465,1.465,0,0,0,2.931,0Z" transform="translate(19.069)" fill="#a0a0a0" fill-rule="evenodd"/>
  </g>
</svg>
