<svg xmlns="http://www.w3.org/2000/svg" width="42" height="42" viewBox="0 0 42 42">
  <g id="noun-size-5015904" transform="translate(-1.25 -1.25)">
    <path id="Path_84398" data-name="Path 84398" d="M2.75,8.721V36.177a1.471,1.471,0,1,0,2.942,0V8.721a1.471,1.471,0,0,0-2.942,0Z" transform="translate(1.442 5.602)" fill-rule="evenodd"/>
    <path id="Path_84399" data-name="Path 84399" d="M36.177,2.75H8.721a1.471,1.471,0,0,0,0,2.942H36.177a1.471,1.471,0,1,0,0-2.942Z" transform="translate(5.602 1.442)" fill-rule="evenodd"/>
    <path id="Path_84400" data-name="Path 84400" d="M33.245,38.129a4.793,4.793,0,0,0,3.479-1.51,5.164,5.164,0,0,0,1.4-3.554V11.814a5.164,5.164,0,0,0-1.4-3.554,4.793,4.793,0,0,0-3.479-1.51H11.633A4.793,4.793,0,0,0,8.154,8.26a5.164,5.164,0,0,0-1.4,3.554V33.065a5.164,5.164,0,0,0,1.4,3.554,4.793,4.793,0,0,0,3.479,1.51Zm0-2.942H11.633a1.865,1.865,0,0,1-1.347-.594,2.214,2.214,0,0,1-.594-1.528V11.814a2.214,2.214,0,0,1,.594-1.528,1.865,1.865,0,0,1,1.347-.594H33.245a1.865,1.865,0,0,1,1.347.594,2.214,2.214,0,0,1,.594,1.528V33.065a2.214,2.214,0,0,1-.594,1.528A1.865,1.865,0,0,1,33.245,35.187Z" transform="translate(5.121 5.121)" fill-rule="evenodd"/>
    <rect id="Rectangle_6177" data-name="Rectangle 6177" width="26.326" height="28.649" transform="translate(14.591 12.278)" fill="#141212"/>
    <path id="Path_84401" data-name="Path 84401" d="M26.021,8.221A1.471,1.471,0,0,0,24.551,6.75H12.364a1.471,1.471,0,0,0-1.471,1.471v7.4A3.037,3.037,0,0,0,12.081,18a3.959,3.959,0,0,0,2.459.833h7.833A3.959,3.959,0,0,0,24.833,18a3.037,3.037,0,0,0,1.188-2.379ZM23.08,9.692V15.62c0,.039-.051.055-.084.082a1,1,0,0,1-.622.188H14.541a1,1,0,0,1-.622-.188c-.033-.027-.084-.043-.084-.082V9.692H23.08Z" transform="translate(9.153 6.067)" fill="#fff" fill-rule="evenodd"/>
    <path id="Path_84402" data-name="Path 84402" d="M8.6,21.25H2.721a1.471,1.471,0,1,0,0,2.942H8.6a1.471,1.471,0,1,0,0-2.942Z" transform="translate(0 19.058)" fill-rule="evenodd"/>
    <path id="Path_84403" data-name="Path 84403" d="M10.192,8.6V2.721a1.471,1.471,0,1,0-2.942,0V8.6a1.471,1.471,0,0,0,2.942,0Z" transform="translate(5.717)" fill-rule="evenodd"/>
    <path id="Path_84404" data-name="Path 84404" d="M8.6,7.25H2.721a1.471,1.471,0,1,0,0,2.942H8.6a1.471,1.471,0,0,0,0-2.942Z" transform="translate(0 5.717)" fill-rule="evenodd"/>
    <path id="Path_84405" data-name="Path 84405" d="M24.192,8.6V2.721a1.471,1.471,0,1,0-2.942,0V8.6a1.471,1.471,0,1,0,2.942,0Z" transform="translate(19.058)" fill-rule="evenodd"/>
    <rect id="Rectangle_6178" data-name="Rectangle 6178" width="16.881" height="4.22" transform="translate(19.65 11.97)"/>
  </g>
</svg>
