<svg xmlns="http://www.w3.org/2000/svg" width="42" height="42" viewBox="0 0 42 42">
  <g id="noun-upload-6203973" transform="translate(-2 -1.979)">
    <path id="Path_84394" data-name="Path 84394" d="M54.982,10.056A1.4,1.4,0,0,1,53,9.952l-3.871-4.3V17.436a1.4,1.4,0,0,1-2.809,0V5.652l-3.871,4.3A1.4,1.4,0,0,1,40.36,8.074l4.232-4.7a4.214,4.214,0,0,1,6.263,0l4.232,4.7A1.4,1.4,0,0,1,54.982,10.056Z" transform="translate(-11.447)" fill="#a0a0a0"/>
    <path id="Path_84395" data-name="Path 84395" d="M13.511,4.8a8.1,8.1,0,0,0-8.164,7.235,108.889,108.889,0,0,0-.089,20.881l2.754-4.4A9.8,9.8,0,0,1,23.8,27.374l3.621,4.278a8.035,8.035,0,0,1,13.385.213,103.983,103.983,0,0,0,.37-10.943,1.4,1.4,0,0,1,2.8-.057,110.535,110.535,0,0,1-.577,13.4,10.9,10.9,0,0,1-10.944,9.716H13.52A10.909,10.909,0,0,1,2.564,34.2a112.28,112.28,0,0,1,0-22.433A10.9,10.9,0,0,1,13.511,2H25.763a1.4,1.4,0,1,1,0,2.8ZM39.926,36.518v0L38.8,34.032a5.216,5.216,0,0,0-9.453-.108l5.781,6.83A8.114,8.114,0,0,0,39.926,36.518ZM13.52,41.186a8.229,8.229,0,0,1-7.357-4.438l4.224-6.755a7,7,0,0,1,11.28-.811l10.161,12Z" transform="translate(0 -0.006)" fill="#a0a0a0" fill-rule="evenodd"/>
  </g>
</svg>
