<svg xmlns="http://www.w3.org/2000/svg" width="53.331" height="55.296" viewBox="0 0 53.331 55.296">
  <g id="Vodeo" transform="translate(-808.4 33.267)">
    <path id="Path_84324" data-name="Path 84324" d="M154.9,288H109.233a3.833,3.833,0,0,0-3.833,3.833v34.659a3.833,3.833,0,0,0,3.833,3.833H154.9a3.833,3.833,0,0,0,3.833-3.833V291.833A3.833,3.833,0,0,0,154.9,288Zm-13.8,22.957-15.023,9.415a1.637,1.637,0,0,1-1.658.046,1.635,1.635,0,0,1-.845-1.435V300.167a1.634,1.634,0,0,1,2.5-1.389l15.023,9.408a1.632,1.632,0,0,1,.767,1.389A1.615,1.615,0,0,1,141.1,310.957Z" transform="translate(703 -308.294)" fill="#989898"/>
    <path id="Path_84325" data-name="Path 84325" d="M197.421,179.346H194.8A5.345,5.345,0,0,1,200.133,174H231.1a5.336,5.336,0,0,1,5.327,5.333H233.8a2.712,2.712,0,0,0-2.706-2.712H200.133A2.721,2.721,0,0,0,197.421,179.346Z" transform="translate(619.457 -201.763)" fill="#989898"/>
    <path id="Path_84326" data-name="Path 84326" d="M336.521,93.453H333.9A3.453,3.453,0,0,1,337.353,90h16.491a3.45,3.45,0,0,1,3.446,3.446h-2.621a.831.831,0,0,0-.826-.826H337.353A.833.833,0,0,0,336.521,93.453Z" transform="translate(489.471 -123.267)" fill="#989898"/>
  </g>
</svg>
